<svg class="animated" id="freepik_stories-server-status" xmlns="http://www.w3.org/2000/svg" viewBox="0 0 500 500" version="1.1" xmlns:xlink="http://www.w3.org/1999/xlink" xmlns:svgjs="http://svgjs.com/svgjs"><style>svg#freepik_stories-server-status:not(.animated) .animable {opacity: 0;}svg#freepik_stories-server-status.animated #freepik--Server--inject-63 {animation: 3s Infinite  linear floating;animation-delay: 0s;}svg#freepik_stories-server-status.animated #freepik--Cables--inject-63 {animation: 3s Infinite  linear wind;animation-delay: 0s;}svg#freepik_stories-server-status.animated #freepik--speech-bubbles--inject-63 {animation: 3s Infinite  linear floating;animation-delay: 0s;}            @keyframes floating {                0% {                    opacity: 1;                    transform: translateY(0px);                }                50% {                    transform: translateY(-10px);                }                100% {                    opacity: 1;                    transform: translateY(0px);                }            }                    @keyframes wind {                0% {                    transform: rotate( 0deg );                }                25% {                    transform: rotate( 1deg );                }                75% {                    transform: rotate( -1deg );                }            }        </style><g id="freepik--Floor--inject-63" class="animable" style="transform-origin: 250px 340.91px;"><ellipse id="freepik--floor--inject-63" cx="250" cy="340.91" rx="239.65" ry="138.36" style="fill: rgb(245, 245, 245); transform-origin: 250px 340.91px;" class="animable"></ellipse></g><g id="freepik--Shadows--inject-63" class="animable" style="transform-origin: 240.567px 357.455px;"><path id="freepik--Shadow--inject-63" d="M238.42,430.84l-9.8-5.66a.79.79,0,0,1,0-1.5L412,317.79a2.9,2.9,0,0,1,2.6,0l9.8,5.66c.72.42.72,1.09,0,1.5L241,430.84A2.9,2.9,0,0,1,238.42,430.84Z" style="fill: rgb(224, 224, 224); transform-origin: 326.509px 374.312px;" class="animable"></path><path id="freepik--shadow--inject-63" d="M212.49,331.13,138.19,374a7.14,7.14,0,0,1-6.46,0l-74.2-42.87c-1.78-1-1.78-2.7,0-3.73l74.3-42.86a7.12,7.12,0,0,1,6.45,0l74.21,42.86C214.27,328.43,214.27,330.1,212.49,331.13Z" style="fill: rgb(224, 224, 224); transform-origin: 135.01px 329.27px;" class="animable"></path></g><g id="freepik--Plant--inject-63" class="animable" style="transform-origin: 440.966px 249.213px;"><g id="freepik--Plants--inject-63" class="animable" style="transform-origin: 440.966px 249.213px;"><path d="M417.94,265.32s-2.07-17,3.11-31.85,14.59-25.55,25-28.9,21.22,4.33,11.5,13.71-28.18,21-31.47,48.14Z" style="fill: rgb(64, 123, 255); transform-origin: 439.439px 235.095px;" id="elchpge0f17tu" class="animable"></path><g id="elq6aivrbrh68"><g style="opacity: 0.3; transform-origin: 439.439px 235.095px;" class="animable"><path d="M417.94,265.32s-2.07-17,3.11-31.85,14.59-25.55,25-28.9,21.22,4.33,11.5,13.71-28.18,21-31.47,48.14Z" id="eljd1bynlrvsf" class="animable" style="transform-origin: 439.439px 235.095px;"></path></g></g><path d="M420,260.28h-.12a.58.58,0,0,1-.49-.66c4.61-30.12,23.11-46.65,32.25-51.18a.58.58,0,0,1,.51,1c-9,4.44-27.07,20.67-31.61,50.32A.59.59,0,0,1,420,260.28Z" style="fill: rgb(255, 255, 255); transform-origin: 435.864px 234.353px;" id="el4zg5io0pxge" class="animable"></path><path d="M472,252.76c-1.86,4.63-10,4.14-10.07,9.87,0,1.53.67,3,.82,4.52.47,4.7-3.41,7.77-7.57,8.44s-9.2-1.79-13.17.67c-2.9,1.81-3.69,5.59-5.18,8.67a17.69,17.69,0,0,1-16.21,9.72c-2-.07-3.73-.83-3.38-3a4.69,4.69,0,0,0,.23-2.32c-.23-1.11-.74-2.16-1.06-3.24-1.46-4.77-2.8-9.74-5.53-14s-.66-10.62,3-13.62c3.41-2.8,8.35-3.61,11.1-7.07,1.37-1.71,2-3.88,3.17-5.74A12.41,12.41,0,0,1,439.3,240c3.21.22,6.15,1.65,9.24,2.42a26.28,26.28,0,0,0,8.16.3c4.92-.32,11-.27,14.24,4.18A6.33,6.33,0,0,1,472,252.76Z" style="fill: rgb(64, 123, 255); transform-origin: 440.966px 267.317px;" id="elp7vvp9vp9c" class="animable"></path><g id="el1zg75wmvc48"><g style="opacity: 0.1; transform-origin: 440.966px 267.317px;" class="animable"><path d="M472,252.76c-1.86,4.63-10,4.14-10.07,9.87,0,1.53.67,3,.82,4.52.47,4.7-3.41,7.77-7.57,8.44s-9.2-1.79-13.17.67c-2.9,1.81-3.69,5.59-5.18,8.67a17.69,17.69,0,0,1-16.21,9.72c-2-.07-3.73-.83-3.38-3a4.69,4.69,0,0,0,.23-2.32c-.23-1.11-.74-2.16-1.06-3.24-1.46-4.77-2.8-9.74-5.53-14s-.66-10.62,3-13.62c3.41-2.8,8.35-3.61,11.1-7.07,1.37-1.71,2-3.88,3.17-5.74A12.41,12.41,0,0,1,439.3,240c3.21.22,6.15,1.65,9.24,2.42a26.28,26.28,0,0,0,8.16.3c4.92-.32,11-.27,14.24,4.18A6.33,6.33,0,0,1,472,252.76Z" id="el359lhy95svh" class="animable" style="transform-origin: 440.966px 267.317px;"></path></g></g><path d="M418.86,284.6h-.05a.51.51,0,0,1-.38-.62c7.18-31.58,40-37.32,47.69-37a.52.52,0,1,1,0,1c-7.57-.27-39.63,5.34-46.66,36.24A.51.51,0,0,1,418.86,284.6Z" style="fill: rgb(255, 255, 255); transform-origin: 442.599px 265.785px;" id="elfqz9goucw2j" class="animable"></path><path d="M454.88,267.4a.53.53,0,0,1-.28-.14A27.38,27.38,0,0,0,432,261.78a.53.53,0,0,1-.6-.42.51.51,0,0,1,.41-.6,28.48,28.48,0,0,1,23.55,5.75.51.51,0,0,1,0,.73A.52.52,0,0,1,454.88,267.4Z" style="fill: rgb(255, 255, 255); transform-origin: 443.452px 263.8px;" id="elrah0nkrt6eo" class="animable"></path></g></g><g id="freepik--Server--inject-63" class="animable" style="transform-origin: 135.045px 235.996px;"><g id="freepik--server--inject-63" class="animable" style="transform-origin: 135.045px 235.996px;"><polygon points="207.16 299.35 135.05 340.99 62.93 299.36 135.05 257.72 207.16 299.35" style="fill: rgb(64, 123, 255); transform-origin: 135.045px 299.355px;" id="elwkpi1eqqr9s" class="animable"></polygon><g id="el5d9aakaam59"><polygon points="207.16 299.35 135.05 340.99 62.93 299.36 135.05 257.72 207.16 299.35" style="opacity: 0.1; transform-origin: 135.045px 299.355px;" class="animable"></polygon></g><g id="el7ql2epfdnp7"><polygon points="135.05 340.99 135.05 335.79 67.44 296.75 62.92 299.35 135.05 340.99" style="opacity: 0.1; transform-origin: 98.985px 318.87px;" class="animable"></polygon></g><path d="M135.05,341v28.49a9.79,9.79,0,0,0,4.8-1.14h0l31.24-18,33.18-19.17a6.35,6.35,0,0,0,2.89-5V299.35Z" style="fill: rgb(64, 123, 255); transform-origin: 171.105px 334.421px;" id="elss6v02xygbf" class="animable"></path><g id="el6bxeqin4029"><path d="M135.05,341v28.49a9.79,9.79,0,0,0,4.8-1.14h0l31.24-18,33.18-19.17a6.35,6.35,0,0,0,2.89-5V299.35Z" style="fill: rgb(255, 255, 255); opacity: 0.65; transform-origin: 171.105px 334.421px;" class="animable"></path></g><path d="M62.92,299.35v26.79a6.38,6.38,0,0,0,2.89,5l28.67,16.56,35.77,20.65a9.76,9.76,0,0,0,4.8,1.14V341Z" style="fill: rgb(64, 123, 255); transform-origin: 98.985px 334.421px;" id="elp2jsy5gmn7" class="animable"></path><g id="elyjxj68vivqn"><path d="M62.92,299.35v26.79a6.38,6.38,0,0,0,2.89,5l28.67,16.56,35.77,20.65a9.76,9.76,0,0,0,4.8,1.14V341Z" style="fill: rgb(255, 255, 255); opacity: 0.5; transform-origin: 98.985px 334.421px;" class="animable"></path></g><polygon points="207.16 268.13 135.05 309.76 62.93 268.13 135.05 226.49 207.16 268.13" style="fill: rgb(64, 123, 255); transform-origin: 135.045px 268.125px;" id="ell8t33rpzx8l" class="animable"></polygon><g id="elmbv183uv2wb"><polygon points="207.16 268.13 135.05 309.76 62.93 268.13 135.05 226.49 207.16 268.13" style="opacity: 0.1; transform-origin: 135.045px 268.125px;" class="animable"></polygon></g><g id="el22ec5lzdf7x"><polygon points="135.05 309.76 135.05 304.56 67.44 265.52 62.93 268.13 135.05 309.76" style="opacity: 0.1; transform-origin: 98.99px 287.64px;" class="animable"></polygon></g><polygon points="207.16 288.94 135.04 330.58 135.05 309.76 207.16 268.13 207.16 288.94" style="fill: rgb(64, 123, 255); transform-origin: 171.1px 299.355px;" id="elf9nd19frm" class="animable"></polygon><g id="elq5d8zv0gvn"><polygon points="207.16 288.94 135.04 330.58 135.05 309.76 207.16 268.13 207.16 288.94" style="fill: rgb(255, 255, 255); opacity: 0.65; transform-origin: 171.1px 299.355px;" class="animable"></polygon></g><polygon points="135.04 330.58 62.93 288.94 62.93 268.13 135.05 309.76 135.04 330.58" style="fill: rgb(64, 123, 255); transform-origin: 98.99px 299.355px;" id="el0sp0woa991e9" class="animable"></polygon><g id="el3ytam6pedfr"><polygon points="135.04 330.58 62.93 288.94 62.93 268.13 135.05 309.76 135.04 330.58" style="fill: rgb(255, 255, 255); opacity: 0.5; transform-origin: 98.99px 299.355px;" class="animable"></polygon></g><polygon points="198.15 299.35 198.15 294.15 135.04 330.58 135.05 335.79 198.15 299.35" style="fill: rgb(69, 90, 100); transform-origin: 166.595px 314.97px;" id="elamjlvmnluo5" class="animable"></polygon><polygon points="67.43 291.55 67.44 296.75 135.05 335.79 135.04 330.58 67.43 291.55" style="fill: rgb(64, 123, 255); transform-origin: 101.24px 313.67px;" id="eldtphr856vz" class="animable"></polygon><polygon points="67.43 291.55 67.44 296.75 135.05 335.79 135.04 330.58 67.43 291.55" style="fill: rgb(55, 71, 79); transform-origin: 101.24px 313.67px;" id="el636vedt7drk" class="animable"></polygon><polygon points="207.16 236.9 135.05 278.54 62.93 236.9 135.05 195.26 207.16 236.9" style="fill: rgb(64, 123, 255); transform-origin: 135.045px 236.9px;" id="elsigcwf4js3n" class="animable"></polygon><g id="elo1nttkp214a"><polygon points="207.16 236.9 135.05 278.54 62.93 236.9 135.05 195.26 207.16 236.9" style="opacity: 0.1; transform-origin: 135.045px 236.9px;" class="animable"></polygon></g><g id="el7b14jnb6ewr"><polygon points="135.05 278.54 135.05 273.33 67.44 234.29 62.93 236.9 135.05 278.54" style="opacity: 0.1; transform-origin: 98.99px 256.415px;" class="animable"></polygon></g><polygon points="207.16 257.72 135.04 299.36 135.05 278.54 207.16 236.9 207.16 257.72" style="fill: rgb(64, 123, 255); transform-origin: 171.1px 268.13px;" id="elxpxlj7fzdo" class="animable"></polygon><g id="elhcp9ob5a7tj"><polygon points="207.16 257.72 135.04 299.36 135.05 278.54 207.16 236.9 207.16 257.72" style="fill: rgb(255, 255, 255); opacity: 0.65; transform-origin: 171.1px 268.13px;" class="animable"></polygon></g><polygon points="135.04 299.36 62.93 257.72 62.93 236.9 135.05 278.54 135.04 299.36" style="fill: rgb(64, 123, 255); transform-origin: 98.99px 268.13px;" id="elang2gvf5lbf" class="animable"></polygon><g id="el0ogrswwl3r6"><polygon points="135.04 299.36 62.93 257.72 62.93 236.9 135.05 278.54 135.04 299.36" style="fill: rgb(255, 255, 255); opacity: 0.5; transform-origin: 98.99px 268.13px;" class="animable"></polygon></g><polygon points="198.15 268.13 198.15 262.92 135.04 299.36 135.05 304.56 198.15 268.13" style="fill: rgb(69, 90, 100); transform-origin: 166.595px 283.74px;" id="elfsu3bzjoq8q" class="animable"></polygon><polygon points="67.43 260.32 67.44 265.52 135.05 304.56 135.04 299.36 67.43 260.32" style="fill: rgb(55, 71, 79); transform-origin: 101.24px 282.44px;" id="elli9b5244xp" class="animable"></polygon><polygon points="198.15 236.9 198.15 231.69 135.04 268.13 135.05 273.33 198.15 236.9" style="fill: rgb(69, 90, 100); transform-origin: 166.595px 252.51px;" id="el24v8xvkb145" class="animable"></polygon><polygon points="67.43 229.09 67.44 234.29 135.05 273.33 135.04 268.13 67.43 229.09" style="fill: rgb(55, 71, 79); transform-origin: 101.24px 251.21px;" id="el188re9lnj4mh" class="animable"></polygon><polygon points="207.16 205.67 135.05 247.31 62.93 205.67 135.05 164.03 207.16 205.67" style="fill: rgb(64, 123, 255); transform-origin: 135.045px 205.67px;" id="el4b11tvv479f" class="animable"></polygon><g id="elqoqh2gromg"><polygon points="207.16 205.67 135.05 247.31 62.93 205.67 135.05 164.03 207.16 205.67" style="fill: rgb(255, 255, 255); opacity: 0.15; transform-origin: 135.045px 205.67px;" class="animable"></polygon></g><g id="elskba72iy23"><polygon points="207.16 205.67 135.05 247.31 62.93 205.67 135.05 164.03 207.16 205.67" style="opacity: 0.1; transform-origin: 135.045px 205.67px;" class="animable"></polygon></g><g id="elwexugn7lbbi"><polygon points="135.05 242.11 135.05 247.31 62.93 205.67 67.44 203.07 135.05 242.11" style="opacity: 0.1; transform-origin: 98.99px 225.19px;" class="animable"></polygon></g><polygon points="207.16 226.49 135.04 268.13 135.05 247.31 207.16 205.67 207.16 226.49" style="fill: rgb(64, 123, 255); transform-origin: 171.1px 236.9px;" id="elwpxn6a2p38" class="animable"></polygon><g id="elfwrxxxfmfv5"><polygon points="207.16 226.49 135.04 268.13 135.05 247.31 207.16 205.67 207.16 226.49" style="fill: rgb(255, 255, 255); opacity: 0.65; transform-origin: 171.1px 236.9px;" class="animable"></polygon></g><polygon points="135.04 268.13 62.93 226.49 62.93 205.67 135.05 247.31 135.04 268.13" style="fill: rgb(64, 123, 255); transform-origin: 98.99px 236.9px;" id="el9dpj7ktaxlk" class="animable"></polygon><g id="el87oht8npap7"><polygon points="135.04 268.13 62.93 226.49 62.93 205.67 135.05 247.31 135.04 268.13" style="fill: rgb(255, 255, 255); opacity: 0.5; transform-origin: 98.99px 236.9px;" class="animable"></polygon></g><polygon points="198.15 205.68 198.15 200.47 135.04 236.91 135.05 242.11 198.15 205.68" style="fill: rgb(69, 90, 100); transform-origin: 166.595px 221.29px;" id="ellrrftnyxmhb" class="animable"></polygon><polygon points="67.43 197.87 67.44 203.07 135.05 242.11 135.04 236.91 67.43 197.87" style="fill: rgb(55, 71, 79); transform-origin: 101.24px 219.99px;" id="el5uebg96vthk" class="animable"></polygon><polygon points="207.16 174.38 135.05 216.02 62.93 174.38 135.05 132.74 207.16 174.38" style="fill: rgb(64, 123, 255); transform-origin: 135.045px 174.38px;" id="elrqgx6n4vvw" class="animable"></polygon><g id="elmgavlw6qab"><polygon points="207.16 174.38 135.05 216.02 62.93 174.38 135.05 132.74 207.16 174.38" style="fill: rgb(255, 255, 255); opacity: 0.15; transform-origin: 135.045px 174.38px;" class="animable"></polygon></g><g id="elheei98zcit"><polygon points="207.16 174.38 135.05 216.02 62.93 174.38 135.05 132.74 207.16 174.38" style="opacity: 0.1; transform-origin: 135.045px 174.38px;" class="animable"></polygon></g><g id="elyza5r19qoge"><polygon points="135.05 210.82 135.05 216.02 62.93 174.38 67.44 171.79 135.05 210.82" style="opacity: 0.1; transform-origin: 98.99px 193.905px;" class="animable"></polygon></g><polygon points="207.16 195.2 135.04 236.84 135.05 216.02 207.16 174.38 207.16 195.2" style="fill: rgb(64, 123, 255); transform-origin: 171.1px 205.61px;" id="elhyofgrtpdxh" class="animable"></polygon><g id="elyt9nmiw47p"><polygon points="207.16 195.2 135.04 236.84 135.05 216.02 207.16 174.38 207.16 195.2" style="fill: rgb(255, 255, 255); opacity: 0.65; transform-origin: 171.1px 205.61px;" class="animable"></polygon></g><polygon points="135.04 236.84 62.93 195.2 62.93 174.38 135.05 216.02 135.04 236.84" style="fill: rgb(64, 123, 255); transform-origin: 98.99px 205.61px;" id="eljuckdzamnx" class="animable"></polygon><g id="el4745rqpv7js"><polygon points="135.04 236.84 62.93 195.2 62.93 174.38 135.05 216.02 135.04 236.84" style="fill: rgb(255, 255, 255); opacity: 0.5; transform-origin: 98.99px 205.61px;" class="animable"></polygon></g><path d="M65.81,141.5l66.39-38.31a6.38,6.38,0,0,1,5.77,0l66.31,38.31a6.38,6.38,0,0,1,2.89,5V164L135,205.62h0L62.92,164V146.49A6.38,6.38,0,0,1,65.81,141.5Z" style="fill: rgb(64, 123, 255); transform-origin: 135.045px 154.06px;" id="el5psmylojzgv" class="animable"></path><g id="elu3b0vhudpi"><path d="M65.81,141.5l66.39-38.31a6.38,6.38,0,0,1,5.77,0l66.31,38.31a6.38,6.38,0,0,1,2.89,5V164L135,205.62h0L62.92,164V146.49A6.38,6.38,0,0,1,65.81,141.5Z" style="fill: rgb(255, 255, 255); opacity: 0.5; transform-origin: 135.045px 154.06px;" class="animable"></path></g><path d="M135,183.82v21.8L207.16,164V146.49a6.47,6.47,0,0,0-2.36-4.63c1,.93.88,2.16-.52,3l-66.4,38.31A5.94,5.94,0,0,1,135,183.82Z" style="fill: rgb(64, 123, 255); transform-origin: 171.08px 173.74px;" id="el1ews7l61thq" class="animable"></path><g id="el4rolybi7gcr"><path d="M135,183.82v21.8L207.16,164V146.49a6.47,6.47,0,0,0-2.36-4.63c1,.93.88,2.16-.52,3l-66.4,38.31A5.94,5.94,0,0,1,135,183.82Z" style="fill: rgb(255, 255, 255); opacity: 0.65; transform-origin: 171.08px 173.74px;" class="animable"></path></g><path d="M204.28,144.83l-66.4,38.31a6.36,6.36,0,0,1-5.76,0L65.81,144.83c-1.6-.92-1.6-2.41,0-3.33l66.39-38.31a6.38,6.38,0,0,1,5.77,0l66.31,38.31C205.88,142.42,205.88,143.91,204.28,144.83Z" style="fill: rgb(64, 123, 255); transform-origin: 135.045px 143.165px;" id="elu8gjtvsyy7" class="animable"></path><g id="el8kjcyfe3y1n"><path d="M204.28,144.83l-66.4,38.31a6.36,6.36,0,0,1-5.76,0L65.81,144.83c-1.6-.92-1.6-2.41,0-3.33l66.39-38.31a6.38,6.38,0,0,1,5.77,0l66.31,38.31C205.88,142.42,205.88,143.91,204.28,144.83Z" style="fill: rgb(255, 255, 255); opacity: 0.85; transform-origin: 135.045px 143.165px;" class="animable"></path></g><polygon points="198.15 174.39 198.15 169.19 135.04 205.62 135.05 210.82 198.15 174.39" style="fill: rgb(69, 90, 100); transform-origin: 166.595px 190.005px;" id="elkd81gwm7xc" class="animable"></polygon><polygon points="67.43 166.58 67.44 171.79 135.05 210.82 135.04 205.62 67.43 166.58" style="fill: rgb(55, 71, 79); transform-origin: 101.24px 188.7px;" id="eldynmwqmapks" class="animable"></polygon><path d="M78.61,332.55a2.18,2.18,0,0,1,1,1.73c0,.64-.45.9-1,.58a2.23,2.23,0,0,1-1-1.74C77.61,332.48,78.06,332.23,78.61,332.55Z" style="fill: rgb(69, 90, 100); transform-origin: 78.61px 333.704px;" id="el2tqeor9seta" class="animable"></path><path d="M87,337.37a2.21,2.21,0,0,1,1,1.72c0,.64-.45.9-1,.58a2.21,2.21,0,0,1-1-1.73C86,337.31,86.4,337.05,87,337.37Z" style="fill: rgb(69, 90, 100); transform-origin: 87px 338.52px;" id="elto113hy0l9f" class="animable"></path><path d="M95.15,342.1a2.2,2.2,0,0,1,1,1.72c0,.63-.44.89-1,.57a2.18,2.18,0,0,1-1-1.72C94.15,342,94.6,341.78,95.15,342.1Z" style="fill: rgb(69, 90, 100); transform-origin: 95.15px 343.241px;" id="elbr5e8w2y9zd" class="animable"></path><path d="M103.42,346.88a2.19,2.19,0,0,1,1,1.71c0,.63-.45.89-1,.57a2.16,2.16,0,0,1-1-1.71C102.43,346.82,102.87,346.56,103.42,346.88Z" style="fill: rgb(69, 90, 100); transform-origin: 103.42px 348.02px;" id="elkcn4c5xengb" class="animable"></path><g id="el1pfsyvq54ds"><g style="opacity: 0.75; transform-origin: 73.12px 315.626px;" class="animable"><path d="M68.89,308l8.47,4.87a5.28,5.28,0,0,1,2.4,4.16v4.86c0,1.53-1.07,2.15-2.4,1.38l-8.47-4.86a5.32,5.32,0,0,1-2.41-4.16v-4.87C66.48,307.82,67.56,307.2,68.89,308Z" style="fill: rgb(255, 255, 255); transform-origin: 73.12px 315.626px;" id="elid9qmdb6j7k" class="animable"></path></g></g><path d="M71.17,313.45l1.1-.64h0a1.48,1.48,0,0,1,1.47.15,4.61,4.61,0,0,1,2.09,3.62,1.49,1.49,0,0,1-.61,1.35h0l-1,.58-.18-.3a2.28,2.28,0,0,1-.6-.24,4.58,4.58,0,0,1-2.09-3.61,2.23,2.23,0,0,1,.06-.54Z" style="fill: rgb(64, 123, 255); transform-origin: 73.5034px 315.595px;" id="el3edm01i0vj4" class="animable"></path><g id="el1330upbjru8"><path d="M71.17,313.45l1.1-.64h0a1.48,1.48,0,0,1,1.47.15,4.61,4.61,0,0,1,2.09,3.62,1.49,1.49,0,0,1-.61,1.35h0l-1,.58-.18-.3a2.28,2.28,0,0,1-.6-.24,4.58,4.58,0,0,1-2.09-3.61,2.23,2.23,0,0,1,.06-.54Z" style="opacity: 0.2; transform-origin: 73.5034px 315.595px;" class="animable"></path></g><path d="M72.69,313.57a4.61,4.61,0,0,1,2.09,3.61c0,1.34-.94,1.88-2.09,1.21a4.64,4.64,0,0,1-2.09-3.62C70.6,313.44,71.54,312.9,72.69,313.57Z" style="fill: rgb(64, 123, 255); transform-origin: 72.69px 315.98px;" id="elhb5ircaw31d" class="animable"></path><g id="el872pkpm5fyr"><g style="opacity: 0.75; transform-origin: 73.12px 284.366px;" class="animable"><path d="M68.89,276.72l8.47,4.86a5.31,5.31,0,0,1,2.4,4.16v4.87c0,1.53-1.07,2.15-2.4,1.38l-8.47-4.87A5.29,5.29,0,0,1,66.48,283V278.1C66.48,276.57,67.56,276,68.89,276.72Z" style="fill: rgb(255, 255, 255); transform-origin: 73.12px 284.366px;" id="elxjex8zdpdj9" class="animable"></path></g></g><path d="M71.17,282.2l1.1-.64h0a1.46,1.46,0,0,1,1.47.15,4.61,4.61,0,0,1,2.09,3.61,1.47,1.47,0,0,1-.61,1.35h0l-1,.58L74,287a1.94,1.94,0,0,1-.6-.23,4.58,4.58,0,0,1-2.09-3.62,2.2,2.2,0,0,1,.06-.53Z" style="fill: rgb(64, 123, 255); transform-origin: 73.5039px 284.339px;" id="elb093c1cu5qd" class="animable"></path><g id="elr2jc6mb3a68"><path d="M71.17,282.2l1.1-.64h0a1.46,1.46,0,0,1,1.47.15,4.61,4.61,0,0,1,2.09,3.61,1.47,1.47,0,0,1-.61,1.35h0l-1,.58L74,287a1.94,1.94,0,0,1-.6-.23,4.58,4.58,0,0,1-2.09-3.62,2.2,2.2,0,0,1,.06-.53Z" style="opacity: 0.2; transform-origin: 73.5039px 284.339px;" class="animable"></path></g><path d="M72.69,282.32a4.61,4.61,0,0,1,2.09,3.61c0,1.33-.94,1.87-2.09,1.21a4.64,4.64,0,0,1-2.09-3.62C70.6,282.19,71.54,281.65,72.69,282.32Z" style="fill: rgb(64, 123, 255); transform-origin: 72.69px 284.727px;" id="elsrpvshzc40o" class="animable"></path><g id="elvqqyz356py"><g style="opacity: 0.75; transform-origin: 73.12px 253.123px;" class="animable"><path d="M68.89,245.48l8.47,4.87a5.31,5.31,0,0,1,2.4,4.16v4.86c0,1.54-1.07,2.16-2.4,1.39l-8.47-4.87a5.3,5.3,0,0,1-2.41-4.16v-4.86C66.48,245.34,67.56,244.72,68.89,245.48Z" style="fill: rgb(255, 255, 255); transform-origin: 73.12px 253.123px;" id="elzoibrl7124l" class="animable"></path></g></g><path d="M71.17,251l1.1-.63h0a1.48,1.48,0,0,1,1.47.15,4.64,4.64,0,0,1,2.09,3.62,1.48,1.48,0,0,1-.61,1.35h0l-1,.59-.18-.31a1.94,1.94,0,0,1-.6-.23,4.61,4.61,0,0,1-2.09-3.62,2.15,2.15,0,0,1,.06-.53Z" style="fill: rgb(64, 123, 255); transform-origin: 73.5037px 253.16px;" id="elpfk5tybv0u7" class="animable"></path><g id="elfksp5wqwapf"><path d="M71.17,251l1.1-.63h0a1.48,1.48,0,0,1,1.47.15,4.64,4.64,0,0,1,2.09,3.62,1.48,1.48,0,0,1-.61,1.35h0l-1,.59-.18-.31a1.94,1.94,0,0,1-.6-.23,4.61,4.61,0,0,1-2.09-3.62,2.15,2.15,0,0,1,.06-.53Z" style="opacity: 0.2; transform-origin: 73.5037px 253.16px;" class="animable"></path></g><path d="M72.69,251.08a4.64,4.64,0,0,1,2.09,3.62c0,1.33-.94,1.87-2.09,1.21a4.64,4.64,0,0,1-2.09-3.62C70.6,251,71.54,250.42,72.69,251.08Z" style="fill: rgb(64, 123, 255); transform-origin: 72.69px 253.499px;" id="elgk6nlionk2e" class="animable"></path><g id="el3q81lkv0y9d"><g style="opacity: 0.75; transform-origin: 73.12px 221.927px;" class="animable"><path d="M68.89,214.29l8.47,4.87a5.29,5.29,0,0,1,2.4,4.16v4.86c0,1.53-1.07,2.15-2.4,1.39l-8.47-4.87a5.32,5.32,0,0,1-2.41-4.16v-4.86C66.48,214.14,67.56,213.52,68.89,214.29Z" style="fill: rgb(255, 255, 255); transform-origin: 73.12px 221.927px;" id="eltv2ymhaz3i" class="animable"></path></g></g><path d="M71.17,219.77l1.1-.64h0a1.48,1.48,0,0,1,1.47.15,4.64,4.64,0,0,1,2.09,3.62,1.49,1.49,0,0,1-.61,1.35h0l-1,.59-.18-.31a2,2,0,0,1-.6-.24,4.58,4.58,0,0,1-2.09-3.61,2.29,2.29,0,0,1,.06-.54Z" style="fill: rgb(64, 123, 255); transform-origin: 73.5034px 221.92px;" id="eltaxwnulnza" class="animable"></path><g id="elcqnxx1bq70c"><path d="M71.17,219.77l1.1-.64h0a1.48,1.48,0,0,1,1.47.15,4.64,4.64,0,0,1,2.09,3.62,1.49,1.49,0,0,1-.61,1.35h0l-1,.59-.18-.31a2,2,0,0,1-.6-.24,4.58,4.58,0,0,1-2.09-3.61,2.29,2.29,0,0,1,.06-.54Z" style="opacity: 0.2; transform-origin: 73.5034px 221.92px;" class="animable"></path></g><path d="M72.69,219.89a4.61,4.61,0,0,1,2.09,3.62c0,1.33-.94,1.87-2.09,1.2a4.61,4.61,0,0,1-2.09-3.62C70.6,219.76,71.54,219.22,72.69,219.89Z" style="fill: rgb(64, 123, 255); transform-origin: 72.69px 222.3px;" id="elbssqh0lxzll" class="animable"></path><g id="el765vyus053r"><g style="opacity: 0.75; transform-origin: 73.12px 190.642px;" class="animable"><path d="M68.89,183l8.47,4.87a5.31,5.31,0,0,1,2.4,4.16v4.86c0,1.53-1.07,2.16-2.4,1.39l-8.47-4.87a5.3,5.3,0,0,1-2.41-4.16v-4.86C66.48,182.86,67.56,182.24,68.89,183Z" style="fill: rgb(255, 255, 255); transform-origin: 73.12px 190.642px;" id="elg4yq103229c" class="animable"></path></g></g><path d="M71.17,188.48l1.1-.63h0a1.48,1.48,0,0,1,1.47.15,4.64,4.64,0,0,1,2.09,3.62,1.48,1.48,0,0,1-.61,1.35h0l-1,.59-.18-.31a1.94,1.94,0,0,1-.6-.23,4.61,4.61,0,0,1-2.09-3.62,2.15,2.15,0,0,1,.06-.53Z" style="fill: rgb(64, 123, 255); transform-origin: 73.5037px 190.64px;" id="el87oqb5906mx" class="animable"></path><g id="elrytdehpfgg"><path d="M71.17,188.48l1.1-.63h0a1.48,1.48,0,0,1,1.47.15,4.64,4.64,0,0,1,2.09,3.62,1.48,1.48,0,0,1-.61,1.35h0l-1,.59-.18-.31a1.94,1.94,0,0,1-.6-.23,4.61,4.61,0,0,1-2.09-3.62,2.15,2.15,0,0,1,.06-.53Z" style="opacity: 0.2; transform-origin: 73.5037px 190.64px;" class="animable"></path></g><path d="M72.69,188.6a4.64,4.64,0,0,1,2.09,3.62c0,1.33-.94,1.87-2.09,1.2a4.61,4.61,0,0,1-2.09-3.61C70.6,188.48,71.54,187.94,72.69,188.6Z" style="fill: rgb(64, 123, 255); transform-origin: 72.69px 191.013px;" id="el8x0bs4cg9v7" class="animable"></path><g id="el45k9ec8tnse"><g style="opacity: 0.75; transform-origin: 73.12px 159.39px;" class="animable"><path d="M68.89,151.75l8.47,4.86a5.31,5.31,0,0,1,2.4,4.17v4.86c0,1.53-1.07,2.15-2.4,1.38l-8.47-4.86A5.32,5.32,0,0,1,66.48,158v-4.86C66.48,151.6,67.56,151,68.89,151.75Z" style="fill: rgb(255, 255, 255); transform-origin: 73.12px 159.39px;" id="elf2syhnf39um" class="animable"></path></g></g><path d="M71.17,157.23l1.1-.64h0a1.48,1.48,0,0,1,1.47.15,4.61,4.61,0,0,1,2.09,3.62,1.49,1.49,0,0,1-.61,1.35h0l-1,.58L74,162a2.28,2.28,0,0,1-.6-.24,4.58,4.58,0,0,1-2.09-3.61,2.23,2.23,0,0,1,.06-.54Z" style="fill: rgb(64, 123, 255); transform-origin: 73.5034px 159.375px;" id="elt9fqrp6wkcq" class="animable"></path><g id="elkjjunlkwon"><path d="M71.17,157.23l1.1-.64h0a1.48,1.48,0,0,1,1.47.15,4.61,4.61,0,0,1,2.09,3.62,1.49,1.49,0,0,1-.61,1.35h0l-1,.58L74,162a2.28,2.28,0,0,1-.6-.24,4.58,4.58,0,0,1-2.09-3.61,2.23,2.23,0,0,1,.06-.54Z" style="opacity: 0.2; transform-origin: 73.5034px 159.375px;" class="animable"></path></g><path d="M72.69,157.35A4.61,4.61,0,0,1,74.78,161c0,1.34-.94,1.88-2.09,1.21a4.64,4.64,0,0,1-2.09-3.62C70.6,157.22,71.54,156.68,72.69,157.35Z" style="fill: rgb(64, 123, 255); transform-origin: 72.69px 159.78px;" id="elo0h47ke8rgp" class="animable"></path><path d="M200.25,308.56,164.49,329.2a5.34,5.34,0,0,0-2.4,4.17v4.86c0,1.53,1.08,2.15,2.4,1.38L200.25,319a5.32,5.32,0,0,0,2.41-4.16v-4.87C202.66,308.41,201.58,307.79,200.25,308.56Z" style="fill: rgb(69, 90, 100); transform-origin: 182.375px 324.085px;" id="el8ohfkkfsjzh" class="animable"></path><path d="M200.12,312.67V315a1,1,0,0,1-.48.83l-.54.32c-.26.15-.48,0-.48-.28v-2.36a1.06,1.06,0,0,1,.48-.83l.54-.31C199.91,312.24,200.12,312.37,200.12,312.67Z" style="fill: rgb(64, 123, 255); transform-origin: 199.37px 314.264px;" id="el99m4mdqppye" class="animable"></path><path d="M197.69,314.07v2.36a1,1,0,0,1-.48.83l-.54.32c-.26.15-.48,0-.48-.28v-2.36a1.06,1.06,0,0,1,.48-.83l.54-.31C197.48,313.64,197.69,313.77,197.69,314.07Z" style="fill: rgb(64, 123, 255); transform-origin: 196.94px 315.685px;" id="eln7knjuwqxa" class="animable"></path><path d="M195.27,315.47v2.36a1.06,1.06,0,0,1-.48.83l-.55.32c-.26.15-.48,0-.48-.28v-2.36a1.06,1.06,0,0,1,.48-.83l.55-.31C195.05,315,195.27,315.17,195.27,315.47Z" style="fill: rgb(64, 123, 255); transform-origin: 194.515px 317.076px;" id="el0slks3k629n" class="animable"></path><path d="M192.84,316.87v2.36a1.06,1.06,0,0,1-.48.83l-.54.32c-.27.15-.48,0-.48-.28v-2.36a1,1,0,0,1,.48-.83l.54-.31C192.62,316.44,192.84,316.57,192.84,316.87Z" style="fill: rgb(55, 71, 79); transform-origin: 192.09px 318.485px;" id="eln5qoi85qovk" class="animable"></path><path d="M190.41,318.27v2.36a1.06,1.06,0,0,1-.48.83l-.54.32c-.27.15-.48,0-.48-.28v-2.36a1,1,0,0,1,.48-.83l.54-.31C190.19,317.84,190.41,318,190.41,318.27Z" style="fill: rgb(55, 71, 79); transform-origin: 189.66px 319.888px;" id="elhnzbsyi7dfp" class="animable"></path><path d="M188,319.67V322a1,1,0,0,1-.48.83l-.54.32c-.27.15-.48,0-.48-.28v-2.36a1,1,0,0,1,.48-.83l.54-.31C187.77,319.24,188,319.37,188,319.67Z" style="fill: rgb(64, 123, 255); transform-origin: 187.25px 321.264px;" id="el570nkgb05sr" class="animable"></path><path d="M185.55,321.07v2.36a1,1,0,0,1-.48.83l-.54.32a.3.3,0,0,1-.48-.28v-2.36a1.06,1.06,0,0,1,.48-.83l.54-.31C185.34,320.64,185.55,320.77,185.55,321.07Z" style="fill: rgb(64, 123, 255); transform-origin: 184.799px 322.687px;" id="elksre1k68zrh" class="animable"></path><path d="M183.12,322.47v2.36a1,1,0,0,1-.48.83l-.54.32a.3.3,0,0,1-.48-.28v-2.36a1.06,1.06,0,0,1,.48-.83l.54-.31C182.91,322,183.12,322.17,183.12,322.47Z" style="fill: rgb(64, 123, 255); transform-origin: 182.369px 324.078px;" id="elkh5wd31i36a" class="animable"></path><path d="M180.7,323.87v2.36a1.06,1.06,0,0,1-.48.83l-.55.32a.3.3,0,0,1-.48-.28v-2.36a1.06,1.06,0,0,1,.48-.83l.55-.31C180.48,323.44,180.7,323.57,180.7,323.87Z" style="fill: rgb(64, 123, 255); transform-origin: 179.943px 325.487px;" id="eldrug9pmtcln" class="animable"></path><path d="M178.27,325.27v2.36a1.06,1.06,0,0,1-.48.83l-.54.32c-.27.15-.48,0-.48-.28v-2.36a1,1,0,0,1,.48-.83l.54-.31C178.05,324.84,178.27,325,178.27,325.27Z" style="fill: rgb(64, 123, 255); transform-origin: 177.52px 326.888px;" id="eltbh5ufl4x8p" class="animable"></path><path d="M175.84,326.67V329a1.06,1.06,0,0,1-.48.83l-.54.32c-.27.15-.48,0-.48-.28v-2.36a1,1,0,0,1,.48-.83l.54-.31C175.62,326.24,175.84,326.37,175.84,326.67Z" style="fill: rgb(64, 123, 255); transform-origin: 175.09px 328.264px;" id="elp6clu8c99vs" class="animable"></path><path d="M173.41,328.07v2.36a1,1,0,0,1-.48.83l-.54.32c-.27.15-.48,0-.48-.28v-2.36a1,1,0,0,1,.48-.83l.54-.31C173.2,327.64,173.41,327.77,173.41,328.07Z" style="fill: rgb(64, 123, 255); transform-origin: 172.66px 329.685px;" id="el23x299xxpog" class="animable"></path><path d="M171,329.47v2.36a1,1,0,0,1-.48.83L170,333a.3.3,0,0,1-.48-.28v-2.36a1.06,1.06,0,0,1,.48-.83l.54-.31C170.77,329,171,329.17,171,329.47Z" style="fill: rgb(55, 71, 79); transform-origin: 170.259px 331.091px;" id="eld7073qx9zgn" class="animable"></path><path d="M168.55,330.87v2.36a1,1,0,0,1-.48.83l-.54.31c-.26.16-.48,0-.48-.27v-2.36a1.06,1.06,0,0,1,.48-.83l.54-.31C168.34,330.44,168.55,330.57,168.55,330.87Z" style="fill: rgb(64, 123, 255); transform-origin: 167.8px 332.482px;" id="el4ue2stz0d0v" class="animable"></path><path d="M166.13,332.27v2.36a1.06,1.06,0,0,1-.48.83l-.55.31c-.26.16-.48,0-.48-.27v-2.36a1.06,1.06,0,0,1,.48-.83l.55-.32A.3.3,0,0,1,166.13,332.27Z" style="fill: rgb(64, 123, 255); transform-origin: 165.377px 333.881px;" id="elimkpzv0lk2a" class="animable"></path><path d="M200.25,277.34,164.49,298a5.33,5.33,0,0,0-2.4,4.16V307c0,1.54,1.08,2.16,2.4,1.39l35.76-20.65a5.29,5.29,0,0,0,2.41-4.16v-4.86C202.66,277.19,201.58,276.57,200.25,277.34Z" style="fill: rgb(69, 90, 100); transform-origin: 182.375px 292.865px;" id="elfa81mvrfg1h" class="animable"></path><path d="M200.12,281.45v2.36a1,1,0,0,1-.48.83l-.54.31c-.26.16-.48,0-.48-.27v-2.36a1.06,1.06,0,0,1,.48-.83l.54-.32C199.91,281,200.12,281.15,200.12,281.45Z" style="fill: rgb(64, 123, 255); transform-origin: 199.37px 283.056px;" id="elg55clnxafuo" class="animable"></path><path d="M197.69,282.85v2.36a1,1,0,0,1-.48.83l-.54.31c-.26.16-.48,0-.48-.27v-2.36a1.06,1.06,0,0,1,.48-.83l.54-.32C197.48,282.42,197.69,282.55,197.69,282.85Z" style="fill: rgb(55, 71, 79); transform-origin: 196.94px 284.461px;" id="el48aier6kj6u" class="animable"></path><path d="M195.27,284.25v2.36a1.06,1.06,0,0,1-.48.83l-.55.31c-.26.16-.48,0-.48-.27v-2.36a1.06,1.06,0,0,1,.48-.83l.55-.32A.3.3,0,0,1,195.27,284.25Z" style="fill: rgb(64, 123, 255); transform-origin: 194.517px 285.861px;" id="elgzjnbv1pyr" class="animable"></path><path d="M192.84,285.65V288a1.06,1.06,0,0,1-.48.83l-.54.31c-.27.16-.48,0-.48-.27v-2.36a1,1,0,0,1,.48-.83l.54-.32A.3.3,0,0,1,192.84,285.65Z" style="fill: rgb(55, 71, 79); transform-origin: 192.092px 287.25px;" id="elkfwt3g95d8a" class="animable"></path><path d="M190.41,287.05v2.36a1.06,1.06,0,0,1-.48.83l-.54.31c-.27.16-.48,0-.48-.27v-2.36a1,1,0,0,1,.48-.83l.54-.32C190.19,286.62,190.41,286.74,190.41,287.05Z" style="fill: rgb(55, 71, 79); transform-origin: 189.66px 288.66px;" id="el7e7xpq8a6xc" class="animable"></path><path d="M188,288.45v2.36a1,1,0,0,1-.48.83L187,292c-.27.16-.48,0-.48-.27v-2.36a1,1,0,0,1,.48-.83l.54-.32C187.77,288,188,288.14,188,288.45Z" style="fill: rgb(64, 123, 255); transform-origin: 187.26px 290.088px;" id="el10eiqlx8x39" class="animable"></path><path d="M185.55,289.85v2.36a1,1,0,0,1-.48.83l-.54.31c-.26.16-.48,0-.48-.27v-2.36a1.06,1.06,0,0,1,.48-.83l.54-.32C185.34,289.42,185.55,289.54,185.55,289.85Z" style="fill: rgb(64, 123, 255); transform-origin: 184.8px 291.46px;" id="elsrb8ce6nvw" class="animable"></path><path d="M183.12,291.25v2.36a1,1,0,0,1-.48.83l-.54.31c-.26.16-.48,0-.48-.27v-2.36a1.06,1.06,0,0,1,.48-.83l.54-.32C182.91,290.82,183.12,290.94,183.12,291.25Z" style="fill: rgb(64, 123, 255); transform-origin: 182.37px 292.86px;" id="el5sh3b6gypqd" class="animable"></path><path d="M180.7,292.65V295a1.06,1.06,0,0,1-.48.83l-.55.31c-.26.16-.48,0-.48-.27v-2.36a1.06,1.06,0,0,1,.48-.83l.55-.32C180.48,292.22,180.7,292.34,180.7,292.65Z" style="fill: rgb(55, 71, 79); transform-origin: 179.945px 294.253px;" id="elg6fuvy7af7" class="animable"></path><path d="M178.27,294.05v2.36a1.06,1.06,0,0,1-.48.83l-.54.31c-.27.16-.48,0-.48-.27v-2.36a1,1,0,0,1,.48-.83l.54-.32C178.05,293.62,178.27,293.74,178.27,294.05Z" style="fill: rgb(64, 123, 255); transform-origin: 177.52px 295.66px;" id="el20kbc2jbrsy" class="animable"></path><path d="M175.84,295.45v2.36a1.06,1.06,0,0,1-.48.83l-.54.31c-.27.16-.48,0-.48-.27v-2.36a1,1,0,0,1,.48-.83l.54-.32C175.62,295,175.84,295.14,175.84,295.45Z" style="fill: rgb(55, 71, 79); transform-origin: 175.09px 297.055px;" id="el8zlenqtof99" class="animable"></path><path d="M173.41,296.85v2.36a1,1,0,0,1-.48.83l-.54.31c-.27.16-.48,0-.48-.27v-2.36a1,1,0,0,1,.48-.83l.54-.32C173.2,296.42,173.41,296.54,173.41,296.85Z" style="fill: rgb(64, 123, 255); transform-origin: 172.66px 298.46px;" id="ell9rtvryhhts" class="animable"></path><path d="M171,298.25v2.36a1.05,1.05,0,0,1-.48.83l-.54.31c-.26.16-.48,0-.48-.27v-2.36a1.1,1.1,0,0,1,.48-.84l.54-.31C170.77,297.82,171,297.94,171,298.25Z" style="fill: rgb(55, 71, 79); transform-origin: 170.25px 299.86px;" id="elrhbdzutcs6a" class="animable"></path><path d="M168.55,299.65V302a1.05,1.05,0,0,1-.48.83l-.54.31c-.26.16-.48,0-.48-.27v-2.36a1.1,1.1,0,0,1,.48-.84l.54-.31C168.34,299.22,168.55,299.34,168.55,299.65Z" style="fill: rgb(64, 123, 255); transform-origin: 167.8px 301.253px;" id="eld69jnjz2ip" class="animable"></path><path d="M166.13,301.05v2.36a1.08,1.08,0,0,1-.48.83l-.55.31c-.26.16-.48,0-.48-.27v-2.36a1.1,1.1,0,0,1,.48-.84l.55-.31C165.91,300.62,166.13,300.74,166.13,301.05Z" style="fill: rgb(64, 123, 255); transform-origin: 165.375px 302.66px;" id="eljxs3m575ogf" class="animable"></path><path d="M200.25,246.08l-35.76,20.64a5.34,5.34,0,0,0-2.4,4.17v4.86c0,1.53,1.08,2.15,2.4,1.38l35.76-20.64a5.32,5.32,0,0,0,2.41-4.16v-4.87C202.66,245.93,201.58,245.31,200.25,246.08Z" style="fill: rgb(69, 90, 100); transform-origin: 182.375px 261.605px;" id="elyf21lcol7vh" class="animable"></path><path d="M200.12,250.19v2.36a1,1,0,0,1-.48.83l-.54.32c-.26.15-.48,0-.48-.28v-2.36a1.06,1.06,0,0,1,.48-.83l.54-.31C199.91,249.76,200.12,249.89,200.12,250.19Z" style="fill: rgb(64, 123, 255); transform-origin: 199.37px 251.805px;" id="el5ewxscfc3ol" class="animable"></path><path d="M197.69,251.59V254a1,1,0,0,1-.48.83l-.54.32c-.26.15-.48,0-.48-.28v-2.36a1.06,1.06,0,0,1,.48-.83l.54-.31C197.48,251.16,197.69,251.29,197.69,251.59Z" style="fill: rgb(64, 123, 255); transform-origin: 196.94px 253.238px;" id="elrenfffb9qv" class="animable"></path><path d="M195.27,253v2.36a1.06,1.06,0,0,1-.48.83l-.55.32a.3.3,0,0,1-.48-.28v-2.36a1.06,1.06,0,0,1,.48-.83l.55-.31C195.05,252.56,195.27,252.69,195.27,253Z" style="fill: rgb(64, 123, 255); transform-origin: 194.514px 254.614px;" id="el724n196b19y" class="animable"></path><path d="M192.84,254.39v2.36a1.06,1.06,0,0,1-.48.83l-.54.32c-.27.15-.48,0-.48-.28v-2.36a1,1,0,0,1,.48-.83l.54-.31C192.62,254,192.84,254.09,192.84,254.39Z" style="fill: rgb(64, 123, 255); transform-origin: 192.09px 256.014px;" id="el2ov7rruod82" class="animable"></path><path d="M190.41,255.79v2.36a1.06,1.06,0,0,1-.48.83l-.54.32c-.27.15-.48,0-.48-.28v-2.36a1,1,0,0,1,.48-.83l.54-.31C190.19,255.36,190.41,255.49,190.41,255.79Z" style="fill: rgb(55, 71, 79); transform-origin: 189.66px 257.405px;" id="elz1my51n9d9" class="animable"></path><path d="M188,257.19v2.36a1,1,0,0,1-.48.83l-.54.32c-.27.15-.48,0-.48-.28v-2.36a1,1,0,0,1,.48-.83l.54-.31C187.77,256.76,188,256.89,188,257.19Z" style="fill: rgb(55, 71, 79); transform-origin: 187.25px 258.805px;" id="el7uuvu1rpai2" class="animable"></path><path d="M185.55,258.59V261a1,1,0,0,1-.48.83l-.54.32a.3.3,0,0,1-.48-.28v-2.36a1.06,1.06,0,0,1,.48-.83l.54-.31C185.34,258.16,185.55,258.29,185.55,258.59Z" style="fill: rgb(64, 123, 255); transform-origin: 184.799px 260.24px;" id="elitc9y3og35q" class="animable"></path><path d="M183.12,260v2.36a1,1,0,0,1-.48.83l-.54.32a.3.3,0,0,1-.48-.28v-2.36a1.06,1.06,0,0,1,.48-.83l.54-.31C182.91,259.56,183.12,259.69,183.12,260Z" style="fill: rgb(64, 123, 255); transform-origin: 182.369px 261.614px;" id="eliookq02c4sj" class="animable"></path><path d="M180.7,261.39v2.36a1.06,1.06,0,0,1-.48.83l-.55.32a.3.3,0,0,1-.48-.28v-2.36a1.06,1.06,0,0,1,.48-.83l.55-.31C180.48,261,180.7,261.09,180.7,261.39Z" style="fill: rgb(64, 123, 255); transform-origin: 179.944px 263.015px;" id="elf7l9ppmsd0j" class="animable"></path><path d="M178.27,262.79v2.36a1.06,1.06,0,0,1-.48.83l-.54.31c-.27.16-.48,0-.48-.27v-2.36a1,1,0,0,1,.48-.83l.54-.31C178.05,262.36,178.27,262.49,178.27,262.79Z" style="fill: rgb(55, 71, 79); transform-origin: 177.52px 264.402px;" id="elk82hpx4y6o" class="animable"></path><path d="M175.84,264.19v2.36a1.06,1.06,0,0,1-.48.83l-.54.31c-.27.16-.48,0-.48-.27v-2.36a1,1,0,0,1,.48-.83l.54-.32A.3.3,0,0,1,175.84,264.19Z" style="fill: rgb(64, 123, 255); transform-origin: 175.091px 265.801px;" id="elzanqz8odt2" class="animable"></path><path d="M173.41,265.59V268a1,1,0,0,1-.48.83l-.54.31c-.27.16-.48,0-.48-.27v-2.36a1,1,0,0,1,.48-.83l.54-.32C173.2,265.16,173.41,265.29,173.41,265.59Z" style="fill: rgb(64, 123, 255); transform-origin: 172.66px 267.234px;" id="elldhfcqoa9d" class="animable"></path><path d="M171,267v2.36a1,1,0,0,1-.48.83l-.54.31c-.26.16-.48,0-.48-.27v-2.36A1.06,1.06,0,0,1,170,267l.54-.32C170.77,266.56,171,266.69,171,267Z" style="fill: rgb(55, 71, 79); transform-origin: 170.25px 268.6px;" id="elqv1d3zmo2mc" class="animable"></path><path d="M168.55,268.39v2.36a1,1,0,0,1-.48.83l-.54.31c-.26.16-.48,0-.48-.27v-2.36a1.06,1.06,0,0,1,.48-.83l.54-.32C168.34,268,168.55,268.09,168.55,268.39Z" style="fill: rgb(64, 123, 255); transform-origin: 167.8px 270.009px;" id="elu5wkao3019g" class="animable"></path><path d="M166.13,269.79v2.36a1.06,1.06,0,0,1-.48.83l-.55.31c-.26.16-.48,0-.48-.27v-2.36a1.06,1.06,0,0,1,.48-.83l.55-.32A.3.3,0,0,1,166.13,269.79Z" style="fill: rgb(55, 71, 79); transform-origin: 165.377px 271.401px;" id="el8mtkeh1gqb" class="animable"></path><path d="M200.25,214.87l-35.76,20.65a5.33,5.33,0,0,0-2.4,4.16v4.86c0,1.53,1.08,2.16,2.4,1.39l35.76-20.65a5.3,5.3,0,0,0,2.41-4.16v-4.86C202.66,214.73,201.58,214.11,200.25,214.87Z" style="fill: rgb(69, 90, 100); transform-origin: 182.375px 230.402px;" id="elzkjb7qtjsu8" class="animable"></path><path d="M200.12,219v2.36a1.05,1.05,0,0,1-.48.83l-.54.31c-.26.16-.48,0-.48-.28v-2.35a1.1,1.1,0,0,1,.48-.84l.54-.31C199.91,218.56,200.12,218.68,200.12,219Z" style="fill: rgb(64, 123, 255); transform-origin: 199.37px 220.606px;" id="elhzfp4half7r" class="animable"></path><path d="M197.69,220.39v2.36a1.05,1.05,0,0,1-.48.83l-.54.31c-.26.15-.48,0-.48-.28v-2.35a1.1,1.1,0,0,1,.48-.84l.54-.31C197.48,220,197.69,220.08,197.69,220.39Z" style="fill: rgb(55, 71, 79); transform-origin: 196.94px 222.006px;" id="el5et6hm7n38r" class="animable"></path><path d="M195.27,221.79v2.36a1.08,1.08,0,0,1-.48.83l-.55.31c-.26.15-.48,0-.48-.28v-2.35a1.1,1.1,0,0,1,.48-.84l.55-.31C195.05,221.36,195.27,221.48,195.27,221.79Z" style="fill: rgb(64, 123, 255); transform-origin: 194.515px 223.397px;" id="elj3j3r8twsl" class="animable"></path><path d="M192.84,223.19v2.36a1.08,1.08,0,0,1-.48.83l-.54.31c-.27.15-.48,0-.48-.28v-2.35a1.07,1.07,0,0,1,.48-.84l.54-.31C192.62,222.76,192.84,222.88,192.84,223.19Z" style="fill: rgb(64, 123, 255); transform-origin: 192.09px 224.797px;" id="elu0m724mchpo" class="animable"></path><path d="M190.41,224.59V227a1.08,1.08,0,0,1-.48.83l-.54.31c-.27.15-.48,0-.48-.28v-2.35a1.07,1.07,0,0,1,.48-.84l.54-.31C190.19,224.16,190.41,224.28,190.41,224.59Z" style="fill: rgb(64, 123, 255); transform-origin: 189.66px 226.231px;" id="eloyz6ci9wm9" class="animable"></path><path d="M188,226v2.36a1.05,1.05,0,0,1-.48.83l-.54.31c-.27.15-.48,0-.48-.28v-2.35A1.07,1.07,0,0,1,187,226l.54-.31C187.77,225.56,188,225.68,188,226Z" style="fill: rgb(55, 71, 79); transform-origin: 187.25px 227.599px;" id="elx2asa9ssfpt" class="animable"></path><path d="M185.55,227.39v2.36a1.05,1.05,0,0,1-.48.83l-.54.31c-.26.15-.48,0-.48-.28v-2.35a1.1,1.1,0,0,1,.48-.84l.54-.31C185.34,227,185.55,227.08,185.55,227.39Z" style="fill: rgb(55, 71, 79); transform-origin: 184.8px 229.006px;" id="el5j7qwa9urqm" class="animable"></path><path d="M183.12,228.79v2.36a1.05,1.05,0,0,1-.48.83l-.54.31c-.26.15-.48,0-.48-.28v-2.35a1.1,1.1,0,0,1,.48-.84l.54-.31C182.91,228.36,183.12,228.48,183.12,228.79Z" style="fill: rgb(64, 123, 255); transform-origin: 182.37px 230.397px;" id="elewap1sys0v6" class="animable"></path><path d="M180.7,230.19v2.36a1.08,1.08,0,0,1-.48.83l-.55.31c-.26.15-.48,0-.48-.28v-2.35a1.1,1.1,0,0,1,.48-.84l.55-.31C180.48,229.76,180.7,229.88,180.7,230.19Z" style="fill: rgb(55, 71, 79); transform-origin: 179.945px 231.797px;" id="eluncvizie3oc" class="animable"></path><path d="M178.27,231.59V234a1.08,1.08,0,0,1-.48.83l-.54.31c-.27.15-.48,0-.48-.28v-2.36a1.07,1.07,0,0,1,.48-.83l.54-.31C178.05,231.16,178.27,231.28,178.27,231.59Z" style="fill: rgb(64, 123, 255); transform-origin: 177.52px 233.231px;" id="eld4cun5cm7c" class="animable"></path><path d="M175.84,233v2.36a1.08,1.08,0,0,1-.48.83l-.54.31c-.27.15-.48,0-.48-.28v-2.36a1.07,1.07,0,0,1,.48-.83l.54-.31C175.62,232.56,175.84,232.68,175.84,233Z" style="fill: rgb(64, 123, 255); transform-origin: 175.09px 234.604px;" id="elrvs33ts4hu" class="animable"></path><path d="M173.41,234.39v2.36a1.07,1.07,0,0,1-.48.83l-.54.31c-.27.15-.48,0-.48-.28v-2.36a1.07,1.07,0,0,1,.48-.83l.54-.31C173.2,234,173.41,234.08,173.41,234.39Z" style="fill: rgb(64, 123, 255); transform-origin: 172.66px 236.006px;" id="elkvm8vfy5mu" class="animable"></path><path d="M171,235.79v2.36a1.07,1.07,0,0,1-.48.83l-.54.31c-.26.15-.48,0-.48-.28v-2.36a1.09,1.09,0,0,1,.48-.83l.54-.31C170.77,235.36,171,235.48,171,235.79Z" style="fill: rgb(55, 71, 79); transform-origin: 170.25px 237.397px;" id="elsx0z0ucyjyp" class="animable"></path><path d="M168.55,237.19v2.36a1.07,1.07,0,0,1-.48.83l-.54.31c-.26.15-.48,0-.48-.28v-2.36a1.09,1.09,0,0,1,.48-.83l.54-.31C168.34,236.76,168.55,236.88,168.55,237.19Z" style="fill: rgb(64, 123, 255); transform-origin: 167.8px 238.797px;" id="el9zx0iwhkla" class="animable"></path><path d="M166.13,238.59V241a1.09,1.09,0,0,1-.48.83l-.55.31c-.26.15-.48,0-.48-.28v-2.36a1.09,1.09,0,0,1,.48-.83l.55-.31C165.91,238.16,166.13,238.28,166.13,238.59Z" style="fill: rgb(64, 123, 255); transform-origin: 165.375px 240.231px;" id="els21sh8gkn4i" class="animable"></path><path d="M200.25,183.59l-35.76,20.64a5.33,5.33,0,0,0-2.4,4.16v4.87c0,1.53,1.08,2.15,2.4,1.38L200.25,194a5.32,5.32,0,0,0,2.41-4.17V185C202.66,183.44,201.58,182.82,200.25,183.59Z" style="fill: rgb(69, 90, 100); transform-origin: 182.375px 199.115px;" id="elx9nkj3bvuu" class="animable"></path><path d="M200.12,187.7v2.36a1,1,0,0,1-.48.83l-.54.32a.3.3,0,0,1-.48-.28v-2.36a1.06,1.06,0,0,1,.48-.83l.54-.31C199.91,187.27,200.12,187.4,200.12,187.7Z" style="fill: rgb(64, 123, 255); transform-origin: 199.369px 189.317px;" id="eltsfx0hgfmxl" class="animable"></path><path d="M197.69,189.1v2.36a1,1,0,0,1-.48.83l-.54.32a.3.3,0,0,1-.48-.28V190a1.06,1.06,0,0,1,.48-.83l.54-.31C197.48,188.67,197.69,188.8,197.69,189.1Z" style="fill: rgb(55, 71, 79); transform-origin: 196.939px 190.722px;" id="elt2f7koldac" class="animable"></path><path d="M195.27,190.5v2.36a1.06,1.06,0,0,1-.48.83l-.55.32a.3.3,0,0,1-.48-.28v-2.36a1.06,1.06,0,0,1,.48-.83l.55-.31C195.05,190.07,195.27,190.2,195.27,190.5Z" style="fill: rgb(64, 123, 255); transform-origin: 194.514px 192.117px;" id="elq3azjd5wsx" class="animable"></path><path d="M192.84,191.9v2.36a1.06,1.06,0,0,1-.48.83l-.54.31c-.27.16-.48,0-.48-.27v-2.36a1,1,0,0,1,.48-.83l.54-.31C192.62,191.47,192.84,191.6,192.84,191.9Z" style="fill: rgb(64, 123, 255); transform-origin: 192.09px 193.512px;" id="elpvq6akrjlig" class="animable"></path><path d="M190.41,193.3v2.36a1.06,1.06,0,0,1-.48.83l-.54.31c-.27.16-.48,0-.48-.27v-2.36a1,1,0,0,1,.48-.83l.54-.32A.3.3,0,0,1,190.41,193.3Z" style="fill: rgb(64, 123, 255); transform-origin: 189.662px 194.911px;" id="el4ortxc713d9" class="animable"></path><path d="M188,194.7v2.36a1,1,0,0,1-.48.83l-.54.31c-.27.16-.48,0-.48-.27v-2.36a1,1,0,0,1,.48-.83l.54-.32C187.77,194.27,188,194.4,188,194.7Z" style="fill: rgb(55, 71, 79); transform-origin: 187.25px 196.311px;" id="elgmtkatscp0u" class="animable"></path><path d="M185.55,196.1v2.36a1,1,0,0,1-.48.83l-.54.31c-.26.16-.48,0-.48-.27V197a1.06,1.06,0,0,1,.48-.83l.54-.32C185.34,195.67,185.55,195.8,185.55,196.1Z" style="fill: rgb(55, 71, 79); transform-origin: 184.8px 197.716px;" id="ellmgmv0ta1x" class="animable"></path><path d="M183.12,197.5v2.36a1,1,0,0,1-.48.83l-.54.31c-.26.16-.48,0-.48-.27v-2.36a1.06,1.06,0,0,1,.48-.83l.54-.32C182.91,197.07,183.12,197.2,183.12,197.5Z" style="fill: rgb(64, 123, 255); transform-origin: 182.37px 199.111px;" id="els3y2tm6zyw" class="animable"></path><path d="M180.7,198.9v2.36a1.06,1.06,0,0,1-.48.83l-.55.31c-.26.16-.48,0-.48-.27v-2.36a1.06,1.06,0,0,1,.48-.83l.55-.32A.3.3,0,0,1,180.7,198.9Z" style="fill: rgb(55, 71, 79); transform-origin: 179.946px 200.511px;" id="elvb8i7oxxon" class="animable"></path><path d="M178.27,200.3v2.36a1.06,1.06,0,0,1-.48.83l-.54.31c-.27.16-.48,0-.48-.27v-2.36a1,1,0,0,1,.48-.83l.54-.32A.3.3,0,0,1,178.27,200.3Z" style="fill: rgb(64, 123, 255); transform-origin: 177.522px 201.911px;" id="elgd6rinakvw9" class="animable"></path><path d="M175.84,201.7v2.36a1.06,1.06,0,0,1-.48.83l-.54.31c-.27.16-.48,0-.48-.27v-2.36a1,1,0,0,1,.48-.83l.54-.32C175.62,201.27,175.84,201.39,175.84,201.7Z" style="fill: rgb(64, 123, 255); transform-origin: 175.09px 203.31px;" id="el4vhzu899avx" class="animable"></path><path d="M173.41,203.1v2.36a1,1,0,0,1-.48.83l-.54.31c-.27.16-.48,0-.48-.27V204a1,1,0,0,1,.48-.83l.54-.32C173.2,202.67,173.41,202.79,173.41,203.1Z" style="fill: rgb(64, 123, 255); transform-origin: 172.66px 204.715px;" id="el6wlfuyyseb4" class="animable"></path><path d="M171,204.5v2.36a1,1,0,0,1-.48.83L170,208c-.26.16-.48,0-.48-.27v-2.36a1.06,1.06,0,0,1,.48-.83l.54-.32C170.77,204.07,171,204.19,171,204.5Z" style="fill: rgb(55, 71, 79); transform-origin: 170.26px 206.11px;" id="elu7h157f0yka" class="animable"></path><path d="M168.55,205.9v2.36a1,1,0,0,1-.48.83l-.54.31c-.26.16-.48,0-.48-.27v-2.36a1.06,1.06,0,0,1,.48-.83l.54-.32C168.34,205.47,168.55,205.59,168.55,205.9Z" style="fill: rgb(64, 123, 255); transform-origin: 167.8px 207.51px;" id="elmkmehlh4x4i" class="animable"></path><path d="M166.13,207.3v2.36a1.06,1.06,0,0,1-.48.83l-.55.31c-.26.16-.48,0-.48-.27v-2.36a1.06,1.06,0,0,1,.48-.83l.55-.32C165.91,206.87,166.13,207,166.13,207.3Z" style="fill: rgb(64, 123, 255); transform-origin: 165.375px 208.911px;" id="el5gqhfqgowhv" class="animable"></path><path d="M200.25,152.35,164.49,173a5.33,5.33,0,0,0-2.4,4.16V182c0,1.54,1.08,2.16,2.4,1.39l35.76-20.65a5.29,5.29,0,0,0,2.41-4.16v-4.86C202.66,152.21,201.58,151.59,200.25,152.35Z" style="fill: rgb(69, 90, 100); transform-origin: 182.375px 167.873px;" id="el7jetgxszr8b" class="animable"></path><path d="M200.12,156.47v2.36a1,1,0,0,1-.48.83l-.54.31c-.26.16-.48,0-.48-.27v-2.36a1.06,1.06,0,0,1,.48-.83l.54-.32C199.91,156,200.12,156.17,200.12,156.47Z" style="fill: rgb(55, 71, 79); transform-origin: 199.37px 158.072px;" id="elac9smqkly8e" class="animable"></path><path d="M197.69,157.87v2.36a1,1,0,0,1-.48.83l-.54.31c-.26.16-.48,0-.48-.27v-2.36a1.06,1.06,0,0,1,.48-.83l.54-.32C197.48,157.44,197.69,157.57,197.69,157.87Z" style="fill: rgb(64, 123, 255); transform-origin: 196.94px 159.481px;" id="eluyafii5ooem" class="animable"></path><path d="M195.27,159.27v2.36a1.06,1.06,0,0,1-.48.83l-.55.31c-.26.16-.48,0-.48-.27v-2.36a1.06,1.06,0,0,1,.48-.83l.55-.32A.3.3,0,0,1,195.27,159.27Z" style="fill: rgb(55, 71, 79); transform-origin: 194.517px 160.881px;" id="elzwlrx56sc9r" class="animable"></path><path d="M192.84,160.67V163a1.06,1.06,0,0,1-.48.83l-.54.31c-.27.16-.48,0-.48-.27v-2.36a1,1,0,0,1,.48-.83l.54-.32C192.62,160.24,192.84,160.36,192.84,160.67Z" style="fill: rgb(55, 71, 79); transform-origin: 192.09px 162.259px;" id="el887t0ba0gx4" class="animable"></path><path d="M190.41,162.07v2.36a1.06,1.06,0,0,1-.48.83l-.54.31c-.27.16-.48,0-.48-.27v-2.36a1,1,0,0,1,.48-.83l.54-.32C190.19,161.64,190.41,161.76,190.41,162.07Z" style="fill: rgb(55, 71, 79); transform-origin: 189.66px 163.68px;" id="elbt3iw7y5fdi" class="animable"></path><path d="M188,163.47v2.36a1,1,0,0,1-.48.83L187,167c-.27.16-.48,0-.48-.27v-2.36a1,1,0,0,1,.48-.83l.54-.32C187.77,163,188,163.16,188,163.47Z" style="fill: rgb(64, 123, 255); transform-origin: 187.26px 165.091px;" id="el3mmpfne28wh" class="animable"></path><path d="M185.55,164.87v2.36a1,1,0,0,1-.48.83l-.54.31c-.26.16-.48,0-.48-.27v-2.36a1.06,1.06,0,0,1,.48-.83l.54-.32C185.34,164.44,185.55,164.56,185.55,164.87Z" style="fill: rgb(64, 123, 255); transform-origin: 184.8px 166.48px;" id="elna9mwnb1ot9" class="animable"></path><path d="M183.12,166.27v2.36a1,1,0,0,1-.48.83l-.54.31c-.26.16-.48,0-.48-.27v-2.36a1.06,1.06,0,0,1,.48-.83l.54-.32C182.91,165.84,183.12,166,183.12,166.27Z" style="fill: rgb(55, 71, 79); transform-origin: 182.37px 167.883px;" id="elkebim0r0pho" class="animable"></path><path d="M180.7,167.67V170a1.06,1.06,0,0,1-.48.83l-.55.31c-.26.16-.48,0-.48-.27v-2.36a1.06,1.06,0,0,1,.48-.83l.55-.32C180.48,167.24,180.7,167.36,180.7,167.67Z" style="fill: rgb(64, 123, 255); transform-origin: 179.945px 169.259px;" id="el0c6fn7vz5dye" class="animable"></path><path d="M178.27,169.07v2.36a1.08,1.08,0,0,1-.48.83l-.54.31c-.27.16-.48,0-.48-.27v-2.36a1,1,0,0,1,.48-.83l.54-.32C178.05,168.64,178.27,168.76,178.27,169.07Z" style="fill: rgb(55, 71, 79); transform-origin: 177.52px 170.68px;" id="eltxmmnmmdgmj" class="animable"></path><path d="M175.84,170.47v2.36a1.08,1.08,0,0,1-.48.83l-.54.31c-.27.16-.48,0-.48-.27v-2.36a1.07,1.07,0,0,1,.48-.84l.54-.31C175.62,170,175.84,170.16,175.84,170.47Z" style="fill: rgb(55, 71, 79); transform-origin: 175.09px 172.071px;" id="eln5nzol6kde" class="animable"></path><path d="M173.41,171.87v2.36a1.05,1.05,0,0,1-.48.83l-.54.31c-.27.16-.48,0-.48-.27v-2.36a1.07,1.07,0,0,1,.48-.84l.54-.31C173.2,171.44,173.41,171.56,173.41,171.87Z" style="fill: rgb(55, 71, 79); transform-origin: 172.66px 173.48px;" id="el0zd7zn05h3wa" class="animable"></path><path d="M171,173.27v2.36a1.05,1.05,0,0,1-.48.83l-.54.31c-.26.16-.48,0-.48-.27v-2.36a1.1,1.1,0,0,1,.48-.84l.54-.31C170.77,172.84,171,173,171,173.27Z" style="fill: rgb(64, 123, 255); transform-origin: 170.25px 174.883px;" id="elzwrojshw3n" class="animable"></path><path d="M168.55,174.67V177a1.05,1.05,0,0,1-.48.83l-.54.31c-.26.16-.48,0-.48-.28v-2.35a1.1,1.1,0,0,1,.48-.84l.54-.31C168.34,174.24,168.55,174.36,168.55,174.67Z" style="fill: rgb(55, 71, 79); transform-origin: 167.8px 176.259px;" id="elzc63kgp92ep" class="animable"></path><path d="M166.13,176.07v2.36a1.08,1.08,0,0,1-.48.83l-.55.31c-.26.16-.48,0-.48-.28v-2.35a1.1,1.1,0,0,1,.48-.84l.55-.31C165.91,175.64,166.13,175.76,166.13,176.07Z" style="fill: rgb(55, 71, 79); transform-origin: 165.375px 177.68px;" id="ellbzkpec50w" class="animable"></path><path d="M155.69,338.1l-1.1-.64h0a1.47,1.47,0,0,0-1.46.15,4.61,4.61,0,0,0-2.09,3.62,1.47,1.47,0,0,0,.61,1.35h0l1,.59.19-.31a2.09,2.09,0,0,0,.6-.24,4.61,4.61,0,0,0,2.09-3.61,2.28,2.28,0,0,0-.07-.54Z" style="fill: rgb(64, 123, 255); transform-origin: 153.361px 340.251px;" id="elxzpp9davzo" class="animable"></path><g id="eltxjim3aaty"><path d="M155.69,338.1l-1.1-.64h0a1.47,1.47,0,0,0-1.46.15,4.61,4.61,0,0,0-2.09,3.62,1.47,1.47,0,0,0,.61,1.35h0l1,.59.19-.31a2.09,2.09,0,0,0,.6-.24,4.61,4.61,0,0,0,2.09-3.61,2.28,2.28,0,0,0-.07-.54Z" style="opacity: 0.4; transform-origin: 153.361px 340.251px;" class="animable"></path></g><path d="M154.17,338.22a4.62,4.62,0,0,0-2.08,3.62c0,1.33.93,1.87,2.08,1.2a4.58,4.58,0,0,0,2.09-3.62C156.26,338.09,155.33,337.55,154.17,338.22Z" style="fill: rgb(64, 123, 255); transform-origin: 154.175px 340.63px;" id="elnlgi6gtvzzi" class="animable"></path><g id="el1g5ibtl9ya3"><path d="M154.17,338.22a4.62,4.62,0,0,0-2.08,3.62c0,1.33.93,1.87,2.08,1.2a4.58,4.58,0,0,0,2.09-3.62C156.26,338.09,155.33,337.55,154.17,338.22Z" style="opacity: 0.2; transform-origin: 154.175px 340.63px;" class="animable"></path></g><path d="M146.63,343.33l-1.1-.63h0a1.48,1.48,0,0,0-1.47.15,4.64,4.64,0,0,0-2.09,3.62,1.49,1.49,0,0,0,.61,1.35h0l1,.59.18-.31a2.37,2.37,0,0,0,.6-.23,4.61,4.61,0,0,0,2.09-3.62,2.76,2.76,0,0,0-.06-.53Z" style="fill: rgb(64, 123, 255); transform-origin: 144.297px 345.49px;" id="elrm6iwlsqfkj" class="animable"></path><g id="elfgzdokqsdsp"><path d="M146.63,343.33l-1.1-.63h0a1.48,1.48,0,0,0-1.47.15,4.64,4.64,0,0,0-2.09,3.62,1.49,1.49,0,0,0,.61,1.35h0l1,.59.18-.31a2.37,2.37,0,0,0,.6-.23,4.61,4.61,0,0,0,2.09-3.62,2.76,2.76,0,0,0-.06-.53Z" style="opacity: 0.4; transform-origin: 144.297px 345.49px;" class="animable"></path></g><path d="M145.11,343.45a4.64,4.64,0,0,0-2.09,3.62c0,1.33.94,1.87,2.09,1.2a4.61,4.61,0,0,0,2.09-3.61C147.2,343.32,146.26,342.78,145.11,343.45Z" style="fill: rgb(64, 123, 255); transform-origin: 145.11px 345.86px;" id="elcnk9arvl8m" class="animable"></path><g id="el882hdsbwu87"><path d="M145.11,343.45a4.64,4.64,0,0,0-2.09,3.62c0,1.33.94,1.87,2.09,1.2a4.61,4.61,0,0,0,2.09-3.61C147.2,343.32,146.26,342.78,145.11,343.45Z" style="opacity: 0.2; transform-origin: 145.11px 345.86px;" class="animable"></path></g><path d="M155.69,306.87l-1.1-.63h0a1.47,1.47,0,0,0-1.46.15A4.61,4.61,0,0,0,151,310a1.47,1.47,0,0,0,.61,1.35h0l1,.59.19-.31a2,2,0,0,0,.6-.23,4.64,4.64,0,0,0,2.09-3.62,2.13,2.13,0,0,0-.07-.53Z" style="fill: rgb(64, 123, 255); transform-origin: 153.341px 309.026px;" id="el8otwjp3gu6" class="animable"></path><g id="elazalo59l598"><path d="M155.69,306.87l-1.1-.63h0a1.47,1.47,0,0,0-1.46.15A4.61,4.61,0,0,0,151,310a1.47,1.47,0,0,0,.61,1.35h0l1,.59.19-.31a2,2,0,0,0,.6-.23,4.64,4.64,0,0,0,2.09-3.62,2.13,2.13,0,0,0-.07-.53Z" style="opacity: 0.4; transform-origin: 153.341px 309.026px;" class="animable"></path></g><path d="M154.17,307a4.63,4.63,0,0,0-2.08,3.62c0,1.33.93,1.87,2.08,1.2a4.58,4.58,0,0,0,2.09-3.61C156.26,306.87,155.33,306.33,154.17,307Z" style="fill: rgb(64, 123, 255); transform-origin: 154.175px 309.41px;" id="el6devevyvury" class="animable"></path><g id="el2m0bi5o1gih"><path d="M154.17,307a4.63,4.63,0,0,0-2.08,3.62c0,1.33.93,1.87,2.08,1.2a4.58,4.58,0,0,0,2.09-3.61C156.26,306.87,155.33,306.33,154.17,307Z" style="opacity: 0.2; transform-origin: 154.175px 309.41px;" class="animable"></path></g><path d="M146.63,312.1l-1.1-.63h0a1.48,1.48,0,0,0-1.47.15,4.64,4.64,0,0,0-2.09,3.62,1.48,1.48,0,0,0,.61,1.35h0l1,.59.18-.31a2,2,0,0,0,.6-.23,4.61,4.61,0,0,0,2.09-3.62,2.76,2.76,0,0,0-.06-.53Z" style="fill: rgb(64, 123, 255); transform-origin: 144.296px 314.26px;" id="elywh2kvzke9k" class="animable"></path><g id="el8mtwx31ck19"><path d="M146.63,312.1l-1.1-.63h0a1.48,1.48,0,0,0-1.47.15,4.64,4.64,0,0,0-2.09,3.62,1.48,1.48,0,0,0,.61,1.35h0l1,.59.18-.31a2,2,0,0,0,.6-.23,4.61,4.61,0,0,0,2.09-3.62,2.76,2.76,0,0,0-.06-.53Z" style="opacity: 0.4; transform-origin: 144.296px 314.26px;" class="animable"></path></g><path d="M145.11,312.22a4.64,4.64,0,0,0-2.09,3.62c0,1.33.94,1.87,2.09,1.21a4.64,4.64,0,0,0,2.09-3.62C147.2,312.1,146.26,311.56,145.11,312.22Z" style="fill: rgb(64, 123, 255); transform-origin: 145.11px 314.635px;" id="elrkg0aa5sjx8" class="animable"></path><g id="el0mqsfysbqnv"><path d="M145.11,312.22a4.64,4.64,0,0,0-2.09,3.62c0,1.33.94,1.87,2.09,1.21a4.64,4.64,0,0,0,2.09-3.62C147.2,312.1,146.26,311.56,145.11,312.22Z" style="opacity: 0.2; transform-origin: 145.11px 314.635px;" class="animable"></path></g><path d="M155.69,275.64l-1.1-.63h0a1.47,1.47,0,0,0-1.46.15,4.61,4.61,0,0,0-2.09,3.62,1.46,1.46,0,0,0,.61,1.35h0l1,.59.19-.31a2,2,0,0,0,.6-.23,4.64,4.64,0,0,0,2.09-3.62,2.13,2.13,0,0,0-.07-.53Z" style="fill: rgb(64, 123, 255); transform-origin: 153.361px 277.801px;" id="elqwh5y6hqt4" class="animable"></path><g id="el75cx3h2cg8d"><path d="M155.69,275.64l-1.1-.63h0a1.47,1.47,0,0,0-1.46.15,4.61,4.61,0,0,0-2.09,3.62,1.46,1.46,0,0,0,.61,1.35h0l1,.59.19-.31a2,2,0,0,0,.6-.23,4.64,4.64,0,0,0,2.09-3.62,2.13,2.13,0,0,0-.07-.53Z" style="opacity: 0.4; transform-origin: 153.361px 277.801px;" class="animable"></path></g><path d="M154.17,275.76a4.63,4.63,0,0,0-2.08,3.62c0,1.33.93,1.87,2.08,1.21a4.61,4.61,0,0,0,2.09-3.62C156.26,275.64,155.33,275.1,154.17,275.76Z" style="fill: rgb(64, 123, 255); transform-origin: 154.175px 278.175px;" id="eld6v0a48t0rr" class="animable"></path><g id="elm1bassk4jwr"><path d="M154.17,275.76a4.63,4.63,0,0,0-2.08,3.62c0,1.33.93,1.87,2.08,1.21a4.61,4.61,0,0,0,2.09-3.62C156.26,275.64,155.33,275.1,154.17,275.76Z" style="opacity: 0.2; transform-origin: 154.175px 278.175px;" class="animable"></path></g><path d="M146.63,280.88l-1.1-.64h0a1.46,1.46,0,0,0-1.47.15A4.61,4.61,0,0,0,142,284a1.48,1.48,0,0,0,.61,1.35h0l1,.59.18-.31a2,2,0,0,0,.6-.23,4.61,4.61,0,0,0,2.09-3.62,2.76,2.76,0,0,0-.06-.53Z" style="fill: rgb(64, 123, 255); transform-origin: 144.311px 283.024px;" id="ele7cizajfobs" class="animable"></path><g id="elq9y530ov9yp"><path d="M146.63,280.88l-1.1-.64h0a1.46,1.46,0,0,0-1.47.15A4.61,4.61,0,0,0,142,284a1.48,1.48,0,0,0,.61,1.35h0l1,.59.18-.31a2,2,0,0,0,.6-.23,4.61,4.61,0,0,0,2.09-3.62,2.76,2.76,0,0,0-.06-.53Z" style="opacity: 0.4; transform-origin: 144.311px 283.024px;" class="animable"></path></g><path d="M145.11,281a4.64,4.64,0,0,0-2.09,3.62c0,1.33.94,1.87,2.09,1.21a4.64,4.64,0,0,0,2.09-3.62C147.2,280.87,146.26,280.33,145.11,281Z" style="fill: rgb(64, 123, 255); transform-origin: 145.11px 283.412px;" id="eln6potp2vfm" class="animable"></path><g id="el6a3548k2ahc"><path d="M145.11,281a4.64,4.64,0,0,0-2.09,3.62c0,1.33.94,1.87,2.09,1.21a4.64,4.64,0,0,0,2.09-3.62C147.2,280.87,146.26,280.33,145.11,281Z" style="opacity: 0.2; transform-origin: 145.11px 283.412px;" class="animable"></path></g><path d="M155.69,244.42l-1.1-.64h0a1.44,1.44,0,0,0-1.46.15,4.58,4.58,0,0,0-2.09,3.61,1.46,1.46,0,0,0,.61,1.35h0l1,.59.19-.31a2,2,0,0,0,.6-.23,4.64,4.64,0,0,0,2.09-3.62,2.13,2.13,0,0,0-.07-.53Z" style="fill: rgb(64, 123, 255); transform-origin: 153.361px 246.564px;" id="elzyshq5z315" class="animable"></path><g id="elaa8qbbni6fq"><path d="M155.69,244.42l-1.1-.64h0a1.44,1.44,0,0,0-1.46.15,4.58,4.58,0,0,0-2.09,3.61,1.46,1.46,0,0,0,.61,1.35h0l1,.59.19-.31a2,2,0,0,0,.6-.23,4.64,4.64,0,0,0,2.09-3.62,2.13,2.13,0,0,0-.07-.53Z" style="opacity: 0.4; transform-origin: 153.361px 246.564px;" class="animable"></path></g><path d="M154.17,244.53a4.63,4.63,0,0,0-2.08,3.62c0,1.33.93,1.87,2.08,1.21a4.61,4.61,0,0,0,2.09-3.62C156.26,244.41,155.33,243.87,154.17,244.53Z" style="fill: rgb(64, 123, 255); transform-origin: 154.175px 246.945px;" id="el5aoznozrh3s" class="animable"></path><g id="elhh2kjlvompw"><path d="M154.17,244.53a4.63,4.63,0,0,0-2.08,3.62c0,1.33.93,1.87,2.08,1.21a4.61,4.61,0,0,0,2.09-3.62C156.26,244.41,155.33,243.87,154.17,244.53Z" style="opacity: 0.2; transform-origin: 154.175px 246.945px;" class="animable"></path></g><path d="M146.63,249.65l-1.1-.64h0a1.46,1.46,0,0,0-1.47.15,4.61,4.61,0,0,0-2.09,3.61,1.47,1.47,0,0,0,.61,1.35h0l1,.58.18-.31a2,2,0,0,0,.6-.23,4.58,4.58,0,0,0,2.09-3.62,2.86,2.86,0,0,0-.06-.53Z" style="fill: rgb(64, 123, 255); transform-origin: 144.296px 251.789px;" id="elvm0675ba7wf" class="animable"></path><g id="elozu7yf9xshe"><path d="M146.63,249.65l-1.1-.64h0a1.46,1.46,0,0,0-1.47.15,4.61,4.61,0,0,0-2.09,3.61,1.47,1.47,0,0,0,.61,1.35h0l1,.58.18-.31a2,2,0,0,0,.6-.23,4.58,4.58,0,0,0,2.09-3.62,2.86,2.86,0,0,0-.06-.53Z" style="opacity: 0.4; transform-origin: 144.296px 251.789px;" class="animable"></path></g><path d="M145.11,249.77a4.61,4.61,0,0,0-2.09,3.61c0,1.33.94,1.87,2.09,1.21A4.64,4.64,0,0,0,147.2,251C147.2,249.64,146.26,249.1,145.11,249.77Z" style="fill: rgb(64, 123, 255); transform-origin: 145.11px 252.177px;" id="elbrvut1k8x18" class="animable"></path><g id="eliqp8idcex3s"><path d="M145.11,249.77a4.61,4.61,0,0,0-2.09,3.61c0,1.33.94,1.87,2.09,1.21A4.64,4.64,0,0,0,147.2,251C147.2,249.64,146.26,249.1,145.11,249.77Z" style="opacity: 0.2; transform-origin: 145.11px 252.177px;" class="animable"></path></g><path d="M155.69,213.13l-1.1-.64h0a1.47,1.47,0,0,0-1.46.15,4.58,4.58,0,0,0-2.09,3.62,1.47,1.47,0,0,0,.61,1.35h0l1,.58.19-.3a2.42,2.42,0,0,0,.6-.24,4.61,4.61,0,0,0,2.09-3.61,2.21,2.21,0,0,0-.07-.54Z" style="fill: rgb(64, 123, 255); transform-origin: 153.361px 215.276px;" id="elxds0x4qj7w8" class="animable"></path><g id="elqz0w55lrng"><path d="M155.69,213.13l-1.1-.64h0a1.47,1.47,0,0,0-1.46.15,4.58,4.58,0,0,0-2.09,3.62,1.47,1.47,0,0,0,.61,1.35h0l1,.58.19-.3a2.42,2.42,0,0,0,.6-.24,4.61,4.61,0,0,0,2.09-3.61,2.21,2.21,0,0,0-.07-.54Z" style="opacity: 0.4; transform-origin: 153.361px 215.276px;" class="animable"></path></g><path d="M154.17,213.25a4.6,4.6,0,0,0-2.08,3.61c0,1.34.93,1.88,2.08,1.21a4.61,4.61,0,0,0,2.09-3.62C156.26,213.12,155.33,212.58,154.17,213.25Z" style="fill: rgb(64, 123, 255); transform-origin: 154.175px 215.66px;" id="elo355bmb2og" class="animable"></path><g id="el1x1s5g119sn"><path d="M154.17,213.25a4.6,4.6,0,0,0-2.08,3.61c0,1.34.93,1.88,2.08,1.21a4.61,4.61,0,0,0,2.09-3.62C156.26,213.12,155.33,212.58,154.17,213.25Z" style="opacity: 0.2; transform-origin: 154.175px 215.66px;" class="animable"></path></g><path d="M146.63,218.36l-1.1-.64h0a1.48,1.48,0,0,0-1.47.15,4.64,4.64,0,0,0-2.09,3.62,1.49,1.49,0,0,0,.61,1.35h0l1,.59.18-.31a2.09,2.09,0,0,0,.6-.24,4.58,4.58,0,0,0,2.09-3.61,3,3,0,0,0-.06-.54Z" style="fill: rgb(64, 123, 255); transform-origin: 144.297px 220.51px;" id="elohweped83v9" class="animable"></path><g id="elmeebzdfrwxs"><path d="M146.63,218.36l-1.1-.64h0a1.48,1.48,0,0,0-1.47.15,4.64,4.64,0,0,0-2.09,3.62,1.49,1.49,0,0,0,.61,1.35h0l1,.59.18-.31a2.09,2.09,0,0,0,.6-.24,4.58,4.58,0,0,0,2.09-3.61,3,3,0,0,0-.06-.54Z" style="opacity: 0.4; transform-origin: 144.297px 220.51px;" class="animable"></path></g><path d="M145.11,218.48A4.63,4.63,0,0,0,143,222.1c0,1.33.94,1.87,2.09,1.2a4.61,4.61,0,0,0,2.09-3.62C147.2,218.35,146.26,217.81,145.11,218.48Z" style="fill: rgb(64, 123, 255); transform-origin: 145.09px 220.89px;" id="elcwhimx2vu9r" class="animable"></path><g id="ele8nah68no08"><path d="M145.11,218.48A4.63,4.63,0,0,0,143,222.1c0,1.33.94,1.87,2.09,1.2a4.61,4.61,0,0,0,2.09-3.62C147.2,218.35,146.26,217.81,145.11,218.48Z" style="opacity: 0.2; transform-origin: 145.09px 220.89px;" class="animable"></path></g><path d="M155.69,181.91l-1.1-.64h0a1.47,1.47,0,0,0-1.46.15A4.6,4.6,0,0,0,151,185a1.47,1.47,0,0,0,.61,1.35h0l1,.59.19-.31a2.42,2.42,0,0,0,.6-.24,4.61,4.61,0,0,0,2.09-3.61,2.21,2.21,0,0,0-.07-.54Z" style="fill: rgb(64, 123, 255); transform-origin: 153.341px 184.041px;" id="elvpa5masalz" class="animable"></path><g id="elvx4ddtcjvc"><path d="M155.69,181.91l-1.1-.64h0a1.47,1.47,0,0,0-1.46.15A4.6,4.6,0,0,0,151,185a1.47,1.47,0,0,0,.61,1.35h0l1,.59.19-.31a2.42,2.42,0,0,0,.6-.24,4.61,4.61,0,0,0,2.09-3.61,2.21,2.21,0,0,0-.07-.54Z" style="opacity: 0.4; transform-origin: 153.341px 184.041px;" class="animable"></path></g><path d="M154.17,182a4.6,4.6,0,0,0-2.08,3.61c0,1.34.93,1.88,2.08,1.21a4.6,4.6,0,0,0,2.09-3.62C156.26,181.9,155.33,181.36,154.17,182Z" style="fill: rgb(64, 123, 255); transform-origin: 154.175px 184.419px;" id="elwok2lb2ox8q" class="animable"></path><g id="ele5usct87xc9"><path d="M154.17,182a4.6,4.6,0,0,0-2.08,3.61c0,1.34.93,1.88,2.08,1.21a4.6,4.6,0,0,0,2.09-3.62C156.26,181.9,155.33,181.36,154.17,182Z" style="opacity: 0.2; transform-origin: 154.175px 184.419px;" class="animable"></path></g><path d="M146.63,187.14l-1.1-.64h0a1.48,1.48,0,0,0-1.47.15,4.64,4.64,0,0,0-2.09,3.62,1.49,1.49,0,0,0,.61,1.35h0l1,.59.18-.31a2.09,2.09,0,0,0,.6-.24,4.58,4.58,0,0,0,2.09-3.61,3,3,0,0,0-.06-.54Z" style="fill: rgb(64, 123, 255); transform-origin: 144.297px 189.29px;" id="elm4o34l8lq2" class="animable"></path><g id="eliz7ikc7eela"><path d="M146.63,187.14l-1.1-.64h0a1.48,1.48,0,0,0-1.47.15,4.64,4.64,0,0,0-2.09,3.62,1.49,1.49,0,0,0,.61,1.35h0l1,.59.18-.31a2.09,2.09,0,0,0,.6-.24,4.58,4.58,0,0,0,2.09-3.61,3,3,0,0,0-.06-.54Z" style="opacity: 0.4; transform-origin: 144.297px 189.29px;" class="animable"></path></g><path d="M145.11,187.26a4.63,4.63,0,0,0-2.09,3.62c0,1.33.94,1.87,2.09,1.2a4.61,4.61,0,0,0,2.09-3.61C147.2,187.13,146.26,186.59,145.11,187.26Z" style="fill: rgb(64, 123, 255); transform-origin: 145.11px 189.67px;" id="elojc0xpqs32f" class="animable"></path><g id="ela6nqfjuq54r"><path d="M145.11,187.26a4.63,4.63,0,0,0-2.09,3.62c0,1.33.94,1.87,2.09,1.2a4.61,4.61,0,0,0,2.09-3.61C147.2,187.13,146.26,186.59,145.11,187.26Z" style="opacity: 0.2; transform-origin: 145.11px 189.67px;" class="animable"></path></g><path d="M86.57,253.79l41.09,23.71a2.92,2.92,0,0,1,1.33,2.3v11.35c0,.85-.59,1.2-1.33.77l-41.09-23.7a2.94,2.94,0,0,1-1.33-2.31V254.56C85.24,253.71,85.83,253.37,86.57,253.79Z" style="fill: rgb(69, 90, 100); transform-origin: 107.115px 272.857px;" id="el2c16fbmmquo" class="animable"></path><path d="M87.74,258.79A2.86,2.86,0,0,0,89.07,261l36.09,20.82c.74.42,1.34.12,1.34-.68a2.87,2.87,0,0,0-1.34-2.21L89.07,258.12C88.33,257.7,87.74,258,87.74,258.79Z" style="fill: rgb(64, 123, 255); transform-origin: 107.12px 269.97px;" id="el5l4aa40ip3" class="animable"></path><path d="M87.74,264.56a2.83,2.83,0,0,0,1.33,2.21l36.09,20.82c.74.43,1.34.13,1.34-.67a2.84,2.84,0,0,0-1.34-2.21L89.07,263.89C88.33,263.47,87.74,263.77,87.74,264.56Z" style="fill: rgb(38, 50, 56); transform-origin: 107.12px 275.743px;" id="elvcz38hjlaf" class="animable"></path><path d="M89.07,263.89,109,275.38v2.89l-19.94-11.5a2.83,2.83,0,0,1-1.33-2.21C87.74,263.77,88.33,263.47,89.07,263.89Z" style="fill: rgb(64, 123, 255); transform-origin: 98.365px 270.985px;" id="eln4k3uhmwx8" class="animable"></path><path d="M86.57,285.09l41.09,23.71a2.91,2.91,0,0,1,1.33,2.3v11.35c0,.85-.59,1.19-1.33.77L86.57,299.51a2.91,2.91,0,0,1-1.33-2.3V285.86C85.24,285,85.83,284.67,86.57,285.09Z" style="fill: rgb(69, 90, 100); transform-origin: 107.115px 304.154px;" id="eltbf8h4itr5e" class="animable"></path><path d="M87.74,290.09a2.83,2.83,0,0,0,1.33,2.21l36.09,20.82c.74.43,1.34.13,1.34-.67a2.84,2.84,0,0,0-1.34-2.21L89.07,289.42C88.33,289,87.74,289.29,87.74,290.09Z" style="fill: rgb(64, 123, 255); transform-origin: 107.12px 301.272px;" id="elpekt7r08vp" class="animable"></path><path d="M87.74,295.86a2.83,2.83,0,0,0,1.33,2.21l36.09,20.82c.74.43,1.34.12,1.34-.67a2.84,2.84,0,0,0-1.34-2.21L89.07,295.19C88.33,294.76,87.74,295.06,87.74,295.86Z" style="fill: rgb(38, 50, 56); transform-origin: 107.12px 307.039px;" id="el1xgk0hxzj2zj" class="animable"></path><path d="M89.07,295.19,114,309.56v2.89L89.07,298.07a2.83,2.83,0,0,1-1.33-2.21C87.74,295.06,88.33,294.76,89.07,295.19Z" style="fill: rgb(64, 123, 255); transform-origin: 100.87px 303.722px;" id="elb2znlxjbq3j" class="animable"></path><path d="M86.57,316.16l41.09,23.71a2.91,2.91,0,0,1,1.33,2.3v11.35c0,.85-.59,1.19-1.33.77L86.57,330.58a2.91,2.91,0,0,1-1.33-2.3V316.93C85.24,316.08,85.83,315.74,86.57,316.16Z" style="fill: rgb(69, 90, 100); transform-origin: 107.115px 335.225px;" id="eltp24l4f3h5" class="animable"></path><path d="M87.74,321.16a2.83,2.83,0,0,0,1.33,2.21l36.09,20.82c.74.43,1.34.13,1.34-.67a2.84,2.84,0,0,0-1.34-2.21L89.07,320.49C88.33,320.06,87.74,320.36,87.74,321.16Z" style="fill: rgb(64, 123, 255); transform-origin: 107.12px 332.34px;" id="elub5df6x40nb" class="animable"></path><path d="M87.74,326.93a2.83,2.83,0,0,0,1.33,2.21L125.16,350c.74.43,1.34.12,1.34-.67a2.84,2.84,0,0,0-1.34-2.21L89.07,326.26C88.33,325.83,87.74,326.13,87.74,326.93Z" style="fill: rgb(38, 50, 56); transform-origin: 107.12px 338.129px;" id="el2njio9vm5r4" class="animable"></path><path d="M89.07,326.26,119,343.52v2.88L89.07,329.14a2.83,2.83,0,0,1-1.33-2.21C87.74,326.13,88.33,325.83,89.07,326.26Z" style="fill: rgb(64, 123, 255); transform-origin: 103.37px 336.232px;" id="elfpqlou794s" class="animable"></path><path d="M86.57,222.8l41.09,23.7a2.94,2.94,0,0,1,1.33,2.31v11.35c0,.85-.59,1.19-1.33.77L86.57,237.22a2.93,2.93,0,0,1-1.33-2.31V223.57C85.24,222.72,85.83,222.37,86.57,222.8Z" style="fill: rgb(69, 90, 100); transform-origin: 107.115px 241.863px;" id="eltbvw5jm6nw" class="animable"></path><path d="M87.74,227.8A2.83,2.83,0,0,0,89.07,230l36.09,20.82c.74.42,1.34.12,1.34-.67a2.84,2.84,0,0,0-1.34-2.21L89.07,227.13C88.33,226.7,87.74,227,87.74,227.8Z" style="fill: rgb(64, 123, 255); transform-origin: 107.12px 238.972px;" id="el503kz8up6dw" class="animable"></path><path d="M87.74,233.57a2.86,2.86,0,0,0,1.33,2.21l36.09,20.82c.74.42,1.34.12,1.34-.67a2.87,2.87,0,0,0-1.34-2.22L89.07,232.89C88.33,232.47,87.74,232.77,87.74,233.57Z" style="fill: rgb(38, 50, 56); transform-origin: 107.12px 244.745px;" id="elh0thol9uagn" class="animable"></path><path d="M89.07,232.89,121.5,251.6v2.88l-32.43-18.7a2.86,2.86,0,0,1-1.33-2.21C87.74,232.77,88.33,232.47,89.07,232.89Z" style="fill: rgb(64, 123, 255); transform-origin: 104.62px 243.59px;" id="elzoxgqyf1r2i" class="animable"></path><path d="M86.57,160.27,127.66,184a2.91,2.91,0,0,1,1.33,2.3v11.35c0,.85-.59,1.19-1.33.77L86.57,174.69a2.91,2.91,0,0,1-1.33-2.3V161C85.24,160.19,85.83,159.85,86.57,160.27Z" style="fill: rgb(69, 90, 100); transform-origin: 107.115px 179.345px;" id="eliqufuber2ap" class="animable"></path><path d="M87.74,165.27a2.83,2.83,0,0,0,1.33,2.21l36.09,20.82c.74.43,1.34.13,1.34-.67a2.84,2.84,0,0,0-1.34-2.21L89.07,164.6C88.33,164.17,87.74,164.47,87.74,165.27Z" style="fill: rgb(64, 123, 255); transform-origin: 107.12px 176.45px;" id="elthw9c3fo9r" class="animable"></path><path d="M87.74,171a2.83,2.83,0,0,0,1.33,2.21l36.09,20.82c.74.43,1.34.12,1.34-.67a2.84,2.84,0,0,0-1.34-2.21L89.07,170.37C88.33,169.94,87.74,170.24,87.74,171Z" style="fill: rgb(38, 50, 56); transform-origin: 107.12px 182.198px;" id="el7ndh76z89hc" class="animable"></path><path d="M89.07,170.37,114,184.74v2.89L89.07,173.25A2.83,2.83,0,0,1,87.74,171C87.74,170.24,88.33,169.94,89.07,170.37Z" style="fill: rgb(64, 123, 255); transform-origin: 100.87px 178.901px;" id="elozduiu6z1v" class="animable"></path><path d="M86.57,191.51l41.09,23.71a2.91,2.91,0,0,1,1.33,2.3v11.35c0,.85-.59,1.19-1.33.77L86.57,205.93a2.91,2.91,0,0,1-1.33-2.3V192.28C85.24,191.43,85.83,191.09,86.57,191.51Z" style="fill: rgb(69, 90, 100); transform-origin: 107.115px 210.575px;" id="eln1xar42w56f" class="animable"></path><path d="M87.74,196.51a2.83,2.83,0,0,0,1.33,2.21l36.09,20.82c.74.43,1.34.13,1.34-.67a2.84,2.84,0,0,0-1.34-2.21L89.07,195.84C88.33,195.41,87.74,195.72,87.74,196.51Z" style="fill: rgb(64, 123, 255); transform-origin: 107.12px 207.691px;" id="elgbpfjp4teya" class="animable"></path><path d="M87.74,202.28a2.83,2.83,0,0,0,1.33,2.21l36.09,20.82c.74.43,1.34.13,1.34-.67a2.84,2.84,0,0,0-1.34-2.21L89.07,201.61C88.33,201.18,87.74,201.48,87.74,202.28Z" style="fill: rgb(38, 50, 56); transform-origin: 107.12px 213.46px;" id="elzx06ur39bp" class="animable"></path><path d="M89.07,201.61l32.43,18.7v2.89L89.07,204.49a2.83,2.83,0,0,1-1.33-2.21C87.74,201.48,88.33,201.18,89.07,201.61Z" style="fill: rgb(64, 123, 255); transform-origin: 104.62px 212.307px;" id="elqhsxg0hq04d" class="animable"></path><path d="M136.74,171.27,185,143.4a2.77,2.77,0,0,0,1.25-2.17v-1.62a2.77,2.77,0,0,0-1.25-2.17l-48.28-27.87a2.75,2.75,0,0,0-2.5,0L86,137.44a2.77,2.77,0,0,0-1.25,2.17v1.62A2.77,2.77,0,0,0,86,143.4l48.29,27.87A2.75,2.75,0,0,0,136.74,171.27Z" style="fill: rgb(64, 123, 255); transform-origin: 135.5px 140.414px;" id="eluo7q6j7n6dr" class="animable"></path><g id="el9mo6d6ny70d"><path d="M136.74,171.27,185,143.4a2.77,2.77,0,0,0,1.25-2.17v-1.62a2.77,2.77,0,0,0-1.25-2.17l-48.28-27.87a2.75,2.75,0,0,0-2.5,0L86,137.44a2.77,2.77,0,0,0-1.25,2.17v1.62A2.77,2.77,0,0,0,86,143.4l48.29,27.87A2.75,2.75,0,0,0,136.74,171.27Z" style="opacity: 0.35; transform-origin: 135.5px 140.414px;" class="animable"></path></g><path d="M185,138.88l-48.28,27.88a2.75,2.75,0,0,1-2.5,0L86,138.89a.77.77,0,0,1,0-1.45l48.29-27.87a2.75,2.75,0,0,1,2.5,0L185,137.44A.76.76,0,0,1,185,138.88Z" style="fill: rgb(64, 123, 255); transform-origin: 135.503px 138.165px;" id="el73nn8hqqwxe" class="animable"></path><path d="M135.48,167.06v4.51a2.58,2.58,0,0,0,1.26-.3L185,143.39a2.74,2.74,0,0,0,1.25-2.16V139.6a2.77,2.77,0,0,0-1-2c.45.4.38.94-.23,1.28l-48.28,27.88A2.58,2.58,0,0,1,135.48,167.06Z" style="fill: rgb(64, 123, 255); transform-origin: 160.865px 154.585px;" id="el78aciuynlav" class="animable"></path><g id="el1py0r9vfqgij"><path d="M135.48,167.06v4.51a2.58,2.58,0,0,0,1.26-.3L185,143.39a2.74,2.74,0,0,0,1.25-2.16V139.6a2.77,2.77,0,0,0-1-2c.45.4.38.94-.23,1.28l-48.28,27.88A2.58,2.58,0,0,1,135.48,167.06Z" style="opacity: 0.2; transform-origin: 160.865px 154.585px;" class="animable"></path></g><path d="M136.74,157.74l32.65-18.85a2.77,2.77,0,0,0,1.25-2.17V135.1a2.77,2.77,0,0,0-1.25-2.17l-20.93-12.09a8.24,8.24,0,0,1-2.11-1.88l-10-13.47a1.66,1.66,0,0,0-2.11-.43l-32.66,18.85a2.77,2.77,0,0,0-1.25,2.16v10.65a2.77,2.77,0,0,0,1.25,2.17l32.66,18.85A2.75,2.75,0,0,0,136.74,157.74Z" style="fill: rgb(38, 50, 56); transform-origin: 135.485px 131.447px;" id="elqlseq9dvqk" class="animable"></path><path d="M134.24,153.23,113.3,141.14a8.34,8.34,0,0,1-2.11-1.88l-10-13.47a1.25,1.25,0,0,1,.39-1.88l32.66-18.85a1.66,1.66,0,0,1,2.11.43l10,13.47a7.82,7.82,0,0,0,1.93,2l21.11,12a.76.76,0,0,1,0,1.44l-32.65,18.86A2.75,2.75,0,0,1,134.24,153.23Z" style="fill: rgb(69, 90, 100); transform-origin: 135.413px 129.199px;" id="el1tpgsm1qjfw" class="animable"></path><path d="M101.58,123.91l32.66-18.85a1.66,1.66,0,0,1,2.11.43l10,13.47a6.69,6.69,0,0,0,1,1.07s-35.15,20.31-35.16,20.3a7.68,7.68,0,0,1-1-1.07l-10-13.47A1.25,1.25,0,0,1,101.58,123.91Z" style="fill: rgb(55, 71, 79); transform-origin: 124.134px 122.592px;" id="ela83qv2jjcyv" class="animable"></path><path d="M161.47,133.26a3.28,3.28,0,0,0-2.93,0,.89.89,0,0,0,0,1.69,3.22,3.22,0,0,0,2.93,0A.89.89,0,0,0,161.47,133.26Z" style="fill: rgb(64, 123, 255); transform-origin: 160.005px 134.109px;" id="ellsofczo52aa" class="animable"></path><path d="M155.61,136.65a3.22,3.22,0,0,0-2.93,0,.89.89,0,0,0,0,1.69,3.28,3.28,0,0,0,2.93,0A.89.89,0,0,0,155.61,136.65Z" style="fill: rgb(64, 123, 255); transform-origin: 154.145px 137.491px;" id="el9h4ac4kk13" class="animable"></path><path d="M149.75,140a3.22,3.22,0,0,0-2.93,0,.89.89,0,0,0,0,1.69,3.22,3.22,0,0,0,2.93,0A.89.89,0,0,0,149.75,140Z" style="fill: rgb(38, 50, 56); transform-origin: 148.285px 140.845px;" id="elirdxi6e0y1a" class="animable"></path><path d="M143.89,143.41a3.22,3.22,0,0,0-2.93,0,.89.89,0,0,0,0,1.69,3.22,3.22,0,0,0,2.93,0A.89.89,0,0,0,143.89,143.41Z" style="fill: rgb(38, 50, 56); transform-origin: 142.425px 144.255px;" id="elgt54hq7cpjf" class="animable"></path><path d="M157.08,130.73a3.22,3.22,0,0,0-2.93,0,.89.89,0,0,0,0,1.69,3.28,3.28,0,0,0,2.93,0A.89.89,0,0,0,157.08,130.73Z" style="fill: rgb(64, 123, 255); transform-origin: 155.615px 131.571px;" id="elntwx3xuaufk" class="animable"></path><path d="M151.22,134.11a3.22,3.22,0,0,0-2.93,0,.89.89,0,0,0,0,1.69,3.22,3.22,0,0,0,2.93,0A.89.89,0,0,0,151.22,134.11Z" style="fill: rgb(38, 50, 56); transform-origin: 149.755px 134.955px;" id="el7wzsp1mt74v" class="animable"></path><ellipse cx="143.89" cy="138.34" rx="2.07" ry="1.2" style="fill: rgb(64, 123, 255); transform-origin: 143.89px 138.34px;" id="elct2y6hgd3b" class="animable"></ellipse><path d="M139.5,140.87a3.28,3.28,0,0,0-2.93,0,.9.9,0,0,0,0,1.7,3.28,3.28,0,0,0,2.93,0A.9.9,0,0,0,139.5,140.87Z" style="fill: rgb(38, 50, 56); transform-origin: 138.035px 141.72px;" id="el9vstb8zutq7" class="animable"></path><path d="M152.68,128.19a3.22,3.22,0,0,0-2.93,0,.89.89,0,0,0,0,1.69,3.22,3.22,0,0,0,2.93,0A.89.89,0,0,0,152.68,128.19Z" style="fill: rgb(38, 50, 56); transform-origin: 151.215px 129.035px;" id="elzmtz4m1bit" class="animable"></path><path d="M146.82,131.57a3.22,3.22,0,0,0-2.93,0,.89.89,0,0,0,0,1.69,3.22,3.22,0,0,0,2.93,0A.89.89,0,0,0,146.82,131.57Z" style="fill: rgb(64, 123, 255); transform-origin: 145.355px 132.415px;" id="elhnacz16ty9" class="animable"></path><path d="M141,135a3.28,3.28,0,0,0-2.93,0,.9.9,0,0,0,0,1.7,3.28,3.28,0,0,0,2.93,0A.9.9,0,0,0,141,135Z" style="fill: rgb(38, 50, 56); transform-origin: 139.535px 135.85px;" id="ellvh9wil3r9" class="animable"></path><path d="M138,146.73a3.22,3.22,0,0,0-2.93,0,.89.89,0,0,0,0,1.69,3.22,3.22,0,0,0,2.93,0A.89.89,0,0,0,138,146.73Z" style="fill: rgb(64, 123, 255); transform-origin: 136.535px 147.575px;" id="elmd3nxocilk" class="animable"></path><path d="M133.61,144.19a3.22,3.22,0,0,0-2.93,0,.89.89,0,0,0,0,1.69,3.22,3.22,0,0,0,2.93,0A.89.89,0,0,0,133.61,144.19Z" style="fill: rgb(38, 50, 56); transform-origin: 132.145px 145.035px;" id="elovjqzmptpqs" class="animable"></path><path d="M135.1,138.34a3.22,3.22,0,0,0-2.93,0,.9.9,0,0,0,0,1.69,3.22,3.22,0,0,0,2.93,0A.89.89,0,0,0,135.1,138.34Z" style="fill: rgb(38, 50, 56); transform-origin: 133.645px 139.185px;" id="eltnc0jsnx6aj" class="animable"></path><path d="M148.29,125.65a3.28,3.28,0,0,0-2.93,0,.9.9,0,0,0,0,1.7,3.28,3.28,0,0,0,2.93,0A.9.9,0,0,0,148.29,125.65Z" style="fill: rgb(64, 123, 255); transform-origin: 146.825px 126.5px;" id="elc0nwa31vzrs" class="animable"></path><path d="M142.43,129a3.22,3.22,0,0,0-2.93,0,.89.89,0,0,0,0,1.69,3.22,3.22,0,0,0,2.93,0A.89.89,0,0,0,142.43,129Z" style="fill: rgb(38, 50, 56); transform-origin: 140.965px 129.845px;" id="elxp57rpdaht" class="animable"></path><path d="M136.57,132.42a3.22,3.22,0,0,0-2.93,0,.89.89,0,0,0,0,1.69,3.22,3.22,0,0,0,2.93,0A.89.89,0,0,0,136.57,132.42Z" style="fill: rgb(64, 123, 255); transform-origin: 135.105px 133.265px;" id="el1q92xsefxuh" class="animable"></path><ellipse cx="129.25" cy="136.65" rx="2.07" ry="1.2" style="fill: rgb(38, 50, 56); transform-origin: 129.25px 136.65px;" id="elxqrjnzew4t" class="animable"></ellipse><path d="M129.21,141.65a3.28,3.28,0,0,0-2.93,0,.9.9,0,0,0,0,1.7,3.28,3.28,0,0,0,2.93,0A.9.9,0,0,0,129.21,141.65Z" style="fill: rgb(64, 123, 255); transform-origin: 127.745px 142.5px;" id="elwkxiwrhfl1" class="animable"></path><path d="M124.82,139.12a3.22,3.22,0,0,0-2.93,0,.89.89,0,0,0,0,1.69,3.22,3.22,0,0,0,2.93,0A.89.89,0,0,0,124.82,139.12Z" style="fill: rgb(38, 50, 56); transform-origin: 123.355px 139.965px;" id="eluketnzsc" class="animable"></path><path d="M135.42,153.53V158a2.62,2.62,0,0,0,1.32-.29l32.65-18.86a2.71,2.71,0,0,0,1.25-2.16v-1.63a2.77,2.77,0,0,0-1-2c.46.4.38.94-.23,1.28l-32.65,18.86A2.62,2.62,0,0,1,135.42,153.53Z" style="fill: rgb(55, 71, 79); transform-origin: 153.03px 145.531px;" id="elpjbmic5b41p" class="animable"></path><path d="M142,118.4l0,0a1.1,1.1,0,0,0-1.41-.29l-28.42,16.41a.83.83,0,0,0-.25,1.25l0,0a1.11,1.11,0,0,0,1.4.29l28.42-16.41A.84.84,0,0,0,142,118.4Z" style="fill: rgb(38, 50, 56); transform-origin: 126.956px 127.082px;" id="elwbstv8qzfap" class="animable"></path><path d="M142,118.4l0,0a1.1,1.1,0,0,0-1.41-.29l-21.13,12.2,1.18,1.58,21.13-12.2A.84.84,0,0,0,142,118.4Z" style="fill: rgb(64, 123, 255); transform-origin: 130.834px 124.93px;" id="el8rpws67fuzw" class="animable"></path><path d="M139.68,115.25l0,0a1.1,1.1,0,0,0-1.41-.29l-28.42,16.4a.84.84,0,0,0-.25,1.26l0,0a1.11,1.11,0,0,0,1.4.29l28.42-16.41A.84.84,0,0,0,139.68,115.25Z" style="fill: rgb(38, 50, 56); transform-origin: 124.636px 123.932px;" id="el1qcyisk61hej" class="animable"></path><path d="M139.68,115.25l0,0a1.12,1.12,0,0,0-1.41-.3L131.18,119l1.18,1.58,7.06-4.07A.84.84,0,0,0,139.68,115.25Z" style="fill: rgb(64, 123, 255); transform-origin: 135.52px 117.699px;" id="elyn1x7fyo7ar" class="animable"></path><path d="M137.33,112.09l0,0a1.11,1.11,0,0,0-1.4-.29l-28.42,16.41a.83.83,0,0,0-.26,1.25l0,0a1.09,1.09,0,0,0,1.4.29l28.42-16.4A.85.85,0,0,0,137.33,112.09Z" style="fill: rgb(38, 50, 56); transform-origin: 122.288px 120.778px;" id="elo0i2bvklck" class="animable"></path><path d="M137.33,112.09l0,0a1.13,1.13,0,0,0-1.41-.29l-14.8,8.52,1.18,1.58,14.8-8.51A.85.85,0,0,0,137.33,112.09Z" style="fill: rgb(64, 123, 255); transform-origin: 129.329px 116.784px;" id="el26624jrkfob" class="animable"></path><path d="M135,108.94l0,0a1.09,1.09,0,0,0-1.4-.29L105.13,125a.83.83,0,0,0-.26,1.25l0,0a1.11,1.11,0,0,0,1.4.29l28.42-16.41A.84.84,0,0,0,135,108.94Z" style="fill: rgb(38, 50, 56); transform-origin: 119.91px 117.592px;" id="elxszrdphjx2" class="animable"></path><path d="M135,108.94l0,0a1.09,1.09,0,0,0-1.4-.29l-25.8,14.89,1.18,1.58,25.79-14.89A.84.84,0,0,0,135,108.94Z" style="fill: rgb(64, 123, 255); transform-origin: 121.504px 116.815px;" id="elf8azl6n111w" class="animable"></path></g></g><g id="freepik--Cables--inject-63" class="animable" style="transform-origin: 145.302px 375.12px;"><g id="freepik--Cable--inject-63" class="animable" style="transform-origin: 145.302px 375.12px;"><path d="M256.7,365a.5.5,0,0,1-.7.19l-39.13-22.6a4.45,4.45,0,0,0-3.9,0L134.71,387.8a4.91,4.91,0,0,1-2.45.59,5,5,0,0,1-2.46-.59L84.61,361.71a1.84,1.84,0,0,1,0-3.43l18.57-10.71a.25.25,0,0,1,.23,0,.8.8,0,0,1,.37.62.3.3,0,0,1-.06.2.18.18,0,0,1-.07.05l-.07,0L85.12,359.17a1.07,1.07,0,0,0-.66.82c0,.29.24.59.66.84l45.19,26.09a4.36,4.36,0,0,0,3.89,0l78.26-45.18a5.4,5.4,0,0,1,4.92,0l39.13,22.59A.5.5,0,0,1,256.7,365Z" style="fill: rgb(64, 123, 255); transform-origin: 170.098px 364.769px;" id="el3jamz44mshn" class="animable"></path><path d="M248.43,369.79a.51.51,0,0,1-.69.2l-30.87-17.83a4.45,4.45,0,0,0-3.9,0l-78.26,45.19a4.91,4.91,0,0,1-2.45.6,5,5,0,0,1-2.46-.6L68.07,361.71a1.84,1.84,0,0,1,0-3.43L94.89,342.8h0a.29.29,0,0,1,.25,0,.78.78,0,0,1,.35.62.29.29,0,0,1-.09.23h0L68.58,359.17a1.1,1.1,0,0,0-.66.82c0,.29.25.59.66.84l61.73,35.63a4.36,4.36,0,0,0,3.89,0l78.26-45.18a5.4,5.4,0,0,1,4.92,0l30.87,17.82A.5.5,0,0,1,248.43,369.79Z" style="fill: rgb(64, 123, 255); transform-origin: 157.699px 370.361px;" id="elrkutfa5ikkk" class="animable"></path><path d="M240.16,374.57a.51.51,0,0,1-.69.19l-22.6-13.05a4.38,4.38,0,0,0-3.9,0l-78.26,45.18a4.91,4.91,0,0,1-2.45.6,5,5,0,0,1-2.46-.6L51.54,361.71A2,2,0,0,1,50.38,360a2.05,2.05,0,0,1,1.17-1.71l35.09-20.16a.18.18,0,0,1,.09-.06.26.26,0,0,1,.22,0,.8.8,0,0,1,.36.63.23.23,0,0,1-.1.22h0L52.05,359.17c-.42.24-.65.54-.65.82s.23.59.65.84L130.31,406a4.36,4.36,0,0,0,3.89,0l78.26-45.18a5.4,5.4,0,0,1,4.92,0l22.6,13A.52.52,0,0,1,240.16,374.57Z" style="fill: rgb(64, 123, 255); transform-origin: 145.315px 372.768px;" id="eltcag7xbg3tm" class="animable"></path><path d="M231.9,379.34a.51.51,0,0,1-.69.19l-14.34-8.27a4.38,4.38,0,0,0-3.9,0l-78.26,45.18a5,5,0,0,1-2.45.6,5.12,5.12,0,0,1-2.46-.6L35,361.71a1.85,1.85,0,0,1,0-3.43l43.3-25a.1.1,0,0,1,.08-.05.23.23,0,0,1,.23,0,.76.76,0,0,1,.37.62.36.36,0,0,1,0,.19l-.08,0,0,0-43.29,25a1.08,1.08,0,0,0-.65.82c0,.29.24.59.65.84l94.8,54.73a4.43,4.43,0,0,0,3.89,0l78.26-45.19a5.4,5.4,0,0,1,4.92,0l14.34,8.28A.51.51,0,0,1,231.9,379.34Z" style="fill: rgb(64, 123, 255); transform-origin: 132.957px 375.12px;" id="el4favv6cxn5m" class="animable"></path><g id="elrtld2cq8o09"><g style="opacity: 0.2; transform-origin: 145.302px 375.12px;" class="animable"><path d="M256.7,365a.5.5,0,0,1-.7.19l-39.13-22.6a4.45,4.45,0,0,0-3.9,0L134.71,387.8a4.91,4.91,0,0,1-2.45.59,5,5,0,0,1-2.46-.59L84.61,361.71a1.84,1.84,0,0,1,0-3.43l18.57-10.71a.25.25,0,0,1,.23,0,.8.8,0,0,1,.37.62.3.3,0,0,1-.06.2.18.18,0,0,1-.07.05l-.07,0L85.12,359.17a1.07,1.07,0,0,0-.66.82c0,.29.24.59.66.84l45.19,26.09a4.36,4.36,0,0,0,3.89,0l78.26-45.18a5.4,5.4,0,0,1,4.92,0l39.13,22.59A.5.5,0,0,1,256.7,365Z" id="el37pihsstrqf" class="animable" style="transform-origin: 170.098px 364.769px;"></path><path d="M248.43,369.79a.51.51,0,0,1-.69.2l-30.87-17.83a4.45,4.45,0,0,0-3.9,0l-78.26,45.19a4.91,4.91,0,0,1-2.45.6,5,5,0,0,1-2.46-.6L68.07,361.71a1.84,1.84,0,0,1,0-3.43L94.89,342.8h0a.29.29,0,0,1,.25,0,.78.78,0,0,1,.35.62.29.29,0,0,1-.09.23h0L68.58,359.17a1.1,1.1,0,0,0-.66.82c0,.29.25.59.66.84l61.73,35.63a4.36,4.36,0,0,0,3.89,0l78.26-45.18a5.4,5.4,0,0,1,4.92,0l30.87,17.82A.5.5,0,0,1,248.43,369.79Z" id="el2f3ph0jnj0m" class="animable" style="transform-origin: 157.699px 370.361px;"></path><path d="M240.16,374.57a.51.51,0,0,1-.69.19l-22.6-13.05a4.38,4.38,0,0,0-3.9,0l-78.26,45.18a4.91,4.91,0,0,1-2.45.6,5,5,0,0,1-2.46-.6L51.54,361.71A2,2,0,0,1,50.38,360a2.05,2.05,0,0,1,1.17-1.71l35.09-20.16a.18.18,0,0,1,.09-.06.26.26,0,0,1,.22,0,.8.8,0,0,1,.36.63.23.23,0,0,1-.1.22h0L52.05,359.17c-.42.24-.65.54-.65.82s.23.59.65.84L130.31,406a4.36,4.36,0,0,0,3.89,0l78.26-45.18a5.4,5.4,0,0,1,4.92,0l22.6,13A.52.52,0,0,1,240.16,374.57Z" id="elg2ogrijdbur" class="animable" style="transform-origin: 145.315px 372.768px;"></path><path d="M231.9,379.34a.51.51,0,0,1-.69.19l-14.34-8.27a4.38,4.38,0,0,0-3.9,0l-78.26,45.18a5,5,0,0,1-2.45.6,5.12,5.12,0,0,1-2.46-.6L35,361.71a1.85,1.85,0,0,1,0-3.43l43.3-25a.1.1,0,0,1,.08-.05.23.23,0,0,1,.23,0,.76.76,0,0,1,.37.62.36.36,0,0,1,0,.19l-.08,0,0,0-43.29,25a1.08,1.08,0,0,0-.65.82c0,.29.24.59.65.84l94.8,54.73a4.43,4.43,0,0,0,3.89,0l78.26-45.19a5.4,5.4,0,0,1,4.92,0l14.34,8.28A.51.51,0,0,1,231.9,379.34Z" id="elcokr19yvli" class="animable" style="transform-origin: 132.957px 375.12px;"></path></g></g></g></g><g id="freepik--Device--inject-63" class="animable" style="transform-origin: 326.297px 272.514px;"><g id="freepik--device--inject-63" class="animable" style="transform-origin: 326.297px 272.514px;"><g id="freepik--Monitor--inject-63" class="animable" style="transform-origin: 326.297px 272.514px;"><path d="M347.71,390.36,374,375.16c2.7-1.56,4.06-3.61,4.06-5.66s0-3.66,0-3.66l-24.73-14a5.76,5.76,0,0,1-2.62-4.53v-32.4l-45.9,26.52V373.8a5.76,5.76,0,0,0,2.62,4.53l20.66,12C333.51,393.49,342.29,393.49,347.71,390.36Z" style="fill: rgb(38, 50, 56); transform-origin: 341.435px 353.807px;" id="eletktlifft1k" class="animable"></path><g id="eluzfx9djg1o"><path d="M315.84,379.54v3.64l-8.42-4.85a5.8,5.8,0,0,1-2.61-4.53V341.4l8.75-5c.18,2.22.37,4.52.55,6.75L308,346.65V372a5.74,5.74,0,0,0,2.61,4.53Z" style="opacity: 0.15; transform-origin: 310.325px 359.79px;" class="animable"></path></g><path d="M308,372a5.8,5.8,0,0,0,2.62,4.54l17.49,10.19c5.41,3.13,14.2,3.13,19.62,0l26.3-15.2c5.42-3.13,5.42-8.2,0-11.33L356.51,350a5.79,5.79,0,0,1-2.62-4.53V320.13L308,346.65Z" style="fill: rgb(55, 71, 79); transform-origin: 343.047px 354.604px;" id="el93gwv3hhwo" class="animable"></path><g id="eln95sqwb30l9"><path d="M361.83,353.06h0L356.51,350a5.79,5.79,0,0,1-2.62-4.53V320.13L308,346.65V372a5.8,5.8,0,0,0,2.62,4.54l5.23,3Z" style="opacity: 0.15; transform-origin: 334.915px 349.835px;" class="animable"></path></g><g id="elzhfyam8mov"><path d="M378.07,365.84v3.66c0,2.05-1.36,4.09-4.07,5.66l-26.29,15.19a19.63,19.63,0,0,1-9.36,2.33V389a19.63,19.63,0,0,0,9.36-2.33L374,371.51C376.71,370,378.07,367.9,378.07,365.84Z" style="opacity: 0.15; transform-origin: 358.21px 379.26px;" class="animable"></path></g><path d="M234.27,406.93a7,7,0,0,0,6.34-.11c22.57-13,155-89.48,177.54-102.5a7.26,7.26,0,0,0,3.27-5.67V143.25a6.15,6.15,0,0,0-9.41-5.43L234.47,240.32A7.26,7.26,0,0,0,231.2,246v155.4A7,7,0,0,0,234.27,406.93Z" style="fill: rgb(69, 90, 100); transform-origin: 326.312px 272.259px;" id="el07qi6e0n27t7" class="animable"></path><path d="M240.61,406.81l177.54-102.5a7.24,7.24,0,0,0,3.27-5.66V143.25c0-2.09-1.47-2.93-3.27-1.89L240.61,243.86a7.22,7.22,0,0,0-3.27,5.67V404.92C237.34,407,238.8,407.86,240.61,406.81Z" style="fill: rgb(64, 123, 255); transform-origin: 329.38px 274.086px;" id="elftqxizhvv5" class="animable"></path><path d="M240.61,406.81l177.54-102.5a7.24,7.24,0,0,0,3.27-5.66V143.25c0-2.09-1.47-2.93-3.27-1.89L240.61,243.86a7.22,7.22,0,0,0-3.27,5.67V404.92C237.34,407,238.8,407.86,240.61,406.81Z" style="fill: rgb(55, 71, 79); transform-origin: 329.38px 274.086px;" id="el65sg2g04o73" class="animable"></path><path d="M240.13,407.46a6.12,6.12,0,0,1-8.93-5.68V384.3l6.13,3.55v17.48C237.33,407.23,238.54,408.1,240.13,407.46Z" id="elo1wj3qck8jn" class="animable" style="transform-origin: 235.663px 396.223px;"></path><path d="M237.33,399.46v5.87c0,2.08,1.46,2.93,3.27,1.88l177.54-102.5a7.23,7.23,0,0,0,3.27-5.66v-5.87Z" style="fill: rgb(38, 50, 56); transform-origin: 329.37px 350.42px;" id="ela1xhllaflqi" class="animable"></path><path d="M243.47,386.32V251.56a4.34,4.34,0,0,1,2-3.4l167.88-96.92c1.08-.63,2-.12,2,1.13V287.13a4.31,4.31,0,0,1-2,3.4L245.43,387.45C244.35,388.08,243.47,387.57,243.47,386.32Z" style="fill: rgb(64, 123, 255); transform-origin: 329.41px 269.345px;" id="el51tkc2s97n2" class="animable"></path><path d="M329.38,349.33a3.69,3.69,0,0,0-1.67,2.9c0,1.06.74,1.49,1.67,1a3.7,3.7,0,0,0,1.67-2.89C331.05,349.23,330.3,348.8,329.38,349.33Z" style="fill: rgb(64, 123, 255); transform-origin: 329.38px 351.268px;" id="elmjpbfyp8uvb" class="animable"></path><path d="M238.3,246.29a7,7,0,0,0-1,3.23V399.46l-6.13-3.55V246a6.74,6.74,0,0,1,1-3.23Z" style="fill: rgb(38, 50, 56); transform-origin: 234.735px 321.115px;" id="elhozaw3b89x9" class="animable"></path></g><path d="M315.91,313.5a22.64,22.64,0,0,1-8.58-1.67c-8.09-3.3-14.3-11.41-17.49-22.83a3.69,3.69,0,0,1,7.11-2c2.56,9.18,7.24,15.57,13.17,18,5.06,2.07,11.09,1.23,17.41-2.43,15.13-8.73,28.88-31.6,34.22-56.9A3.69,3.69,0,1,1,369,247.2c-5.84,27.65-20.66,51.9-37.75,61.77A30.8,30.8,0,0,1,315.91,313.5Z" style="fill: rgb(250, 250, 250); transform-origin: 329.392px 278.115px;" id="el7zt7hbm6qca" class="animable"></path><path d="M314.59,252.49c0,4.92-2.59,10.4-5.78,12.24s-5.78-.65-5.78-5.56,2.59-10.4,5.78-12.24S314.59,247.58,314.59,252.49Z" style="fill: rgb(250, 250, 250); transform-origin: 308.81px 255.83px;" id="el3zvol04mjrx" class="animable"></path><path d="M351.19,231.36c0,4.92-2.59,10.4-5.78,12.24s-5.78-.65-5.78-5.56,2.59-10.39,5.78-12.24S351.19,226.45,351.19,231.36Z" style="fill: rgb(250, 250, 250); transform-origin: 345.41px 234.698px;" id="ellxva493sb0j" class="animable"></path></g></g><g id="freepik--speech-bubbles--inject-63" class="animable" style="transform-origin: 322.39px 120.13px;"><g id="freepik--speech-bubble--inject-63" class="animable" style="transform-origin: 256.085px 158.385px;"><g id="freepik--speach-bubble--inject-63" class="animable" style="transform-origin: 256.085px 158.385px;"><path d="M258,203.86l-3.86-11,3.1-9v-5.48l-9.49,5.48v5.48l4.08,10.79a.61.61,0,0,0,.28.25h0Z" style="fill: rgb(64, 123, 255); transform-origin: 252.875px 191.12px;" id="el7w2z71u3qqd" class="animable"></path><g id="elx3uh7uot88o"><path d="M258,203.86l-3.86-11,3.1-9v-5.48l-9.49,5.48v5.48l4.08,10.79a.61.61,0,0,0,.28.25h0Z" style="opacity: 0.3; transform-origin: 252.875px 191.12px;" class="animable"></path></g><path d="M280.71,119.77a6.29,6.29,0,0,0-2.85-4.93l-2.31-1.33a6.29,6.29,0,0,0-5.7,0l-35.54,20.56a6.25,6.25,0,0,0-2.85,4.93v54.2a6.25,6.25,0,0,0,2.85,4.93l2.31,1.34a6.29,6.29,0,0,0,5.7,0l11.43-6.6,4.07,10.77a.61.61,0,0,0,1.1-.1l4.31-16.15,14.63-8.48a6.25,6.25,0,0,0,2.85-4.93Z" style="fill: rgb(64, 123, 255); transform-origin: 256.085px 158.385px;" id="eljf26b0z95w" class="animable"></path><g id="el7tvaomtvpg7"><path d="M231.46,193.2a6.25,6.25,0,0,0,2.85,4.93l2.31,1.34a6.38,6.38,0,0,0,5.21.23c-1.34.51-2.36-.25-2.36-1.87V143.62a5.83,5.83,0,0,1,.83-2.8l-8-4.63a5.87,5.87,0,0,0-.83,2.81Z" style="opacity: 0.2; transform-origin: 236.645px 168.169px;" class="animable"></path></g><g id="elzk2iyrysd5"><path d="M280.62,119c-.33-1.21-1.44-1.6-2.75-.84l-35.55,20.56a5.59,5.59,0,0,0-2,2.13l-8-4.62a5.67,5.67,0,0,1,2-2.13l35.54-20.56a6.29,6.29,0,0,1,5.7,0l2.32,1.34A6.27,6.27,0,0,1,280.62,119Z" style="fill: rgb(255, 255, 255); opacity: 0.3; transform-origin: 256.47px 126.854px;" class="animable"></path></g></g><path d="M245,178l30.86-17.82c.61-.35,1.1-.1,1.1.56a2.35,2.35,0,0,1-1.1,1.82L245,180.38c-.61.35-1.1.11-1.1-.55A2.35,2.35,0,0,1,245,178Z" style="fill: rgb(250, 250, 250); transform-origin: 260.43px 170.281px;" id="el6ehkhorad7n" class="animable"></path><path d="M245,182.8,275.82,165c.61-.35,1.1-.1,1.1.56a2.35,2.35,0,0,1-1.1,1.83L245,185.19c-.61.35-1.1.1-1.1-.56A2.35,2.35,0,0,1,245,182.8Z" style="fill: rgb(250, 250, 250); transform-origin: 260.41px 175.095px;" id="elt9prnb27do" class="animable"></path><path d="M245,187.61l30.86-17.82c.61-.35,1.1-.1,1.1.55a2.35,2.35,0,0,1-1.1,1.83L245,190c-.61.35-1.1.1-1.1-.55A2.35,2.35,0,0,1,245,187.61Z" style="fill: rgb(250, 250, 250); transform-origin: 260.43px 179.895px;" id="elv1qsv507xl" class="animable"></path><path id="freepik--Check--inject-63" d="M269,133a2.5,2.5,0,0,0-3.27,1.33l-9.43,22.45-2.25-2.19a2.5,2.5,0,0,0-3.48,3.58l4.87,4.74a2.51,2.51,0,0,0,1.74.7,2.83,2.83,0,0,0,.5,0,2.48,2.48,0,0,0,1.8-1.48l10.85-25.81A2.5,2.5,0,0,0,269,133Z" style="fill: rgb(250, 250, 250); transform-origin: 260.225px 148.213px;" class="animable"></path></g><g id="freepik--speech-bubble--inject-63" class="animable" style="transform-origin: 322.4px 120.068px;"><g id="freepik--speach-bubble--inject-63" class="animable" style="transform-origin: 322.4px 120.068px;"><path d="M324.35,165.54l-3.85-11,3.1-8.95v-5.49l-9.5,5.49v5.48l4.08,10.79a.61.61,0,0,0,.28.25h0Z" style="fill: rgb(64, 123, 255); transform-origin: 319.225px 152.82px;" id="ell3x0povkhl" class="animable"></path><g id="elpoegf5rhy9"><path d="M324.35,165.54l-3.85-11,3.1-8.95v-5.49l-9.5,5.49v5.48l4.08,10.79a.61.61,0,0,0,.28.25h0Z" style="opacity: 0.3; transform-origin: 319.225px 152.82px;" class="animable"></path></g><path d="M347,81.46a6.3,6.3,0,0,0-2.85-4.93l-2.32-1.34a6.27,6.27,0,0,0-5.69,0L300.62,95.75a6.3,6.3,0,0,0-2.85,4.93v54.21a6.31,6.31,0,0,0,2.85,4.93l2.32,1.34a6.33,6.33,0,0,0,5.69,0l11.43-6.61,4.08,10.78a.61.61,0,0,0,1.1-.11l4.31-16.15,14.63-8.47a6.31,6.31,0,0,0,2.85-4.93Z" style="fill: rgb(64, 123, 255); transform-origin: 322.4px 120.068px;" id="elj8j5faxyh2" class="animable"></path><g id="elny8dgrbpum"><path d="M297.77,154.89a6.31,6.31,0,0,0,2.85,4.93l2.32,1.34a6.38,6.38,0,0,0,5.21.23c-1.34.5-2.36-.25-2.36-1.88v-54.2a5.76,5.76,0,0,1,.83-2.81l-8-4.63a5.81,5.81,0,0,0-.84,2.81Z" style="opacity: 0.2; transform-origin: 302.96px 129.854px;" class="animable"></path></g><g id="elaapvkoa5ccf"><path d="M346.93,80.65c-.33-1.21-1.43-1.59-2.75-.84l-35.55,20.57a5.71,5.71,0,0,0-2,2.12l-8-4.62a5.69,5.69,0,0,1,2-2.12l35.54-20.57a6.35,6.35,0,0,1,5.7,0l2.32,1.34A6.26,6.26,0,0,1,346.93,80.65Z" style="fill: rgb(255, 255, 255); opacity: 0.3; transform-origin: 322.78px 88.5073px;" class="animable"></path></g></g><path d="M311.09,139.78,342,122c.61-.36,1.11-.11,1.11.55a2.37,2.37,0,0,1-1.11,1.83l-30.86,17.82c-.61.35-1.1.1-1.1-.56A2.37,2.37,0,0,1,311.09,139.78Z" style="fill: rgb(250, 250, 250); transform-origin: 326.575px 132.097px;" id="elypcvmzm89ap" class="animable"></path><path d="M311.09,144.59,342,126.77c.61-.35,1.11-.1,1.11.56a2.38,2.38,0,0,1-1.11,1.83L311.09,147c-.61.36-1.1.11-1.1-.55A2.35,2.35,0,0,1,311.09,144.59Z" style="fill: rgb(250, 250, 250); transform-origin: 326.55px 136.888px;" id="elm9k7honw9bg" class="animable"></path><path d="M311.09,149.39,342,131.57c.61-.35,1.11-.1,1.11.56A2.37,2.37,0,0,1,342,134l-30.86,17.82c-.61.35-1.1.1-1.1-.56A2.35,2.35,0,0,1,311.09,149.39Z" style="fill: rgb(250, 250, 250); transform-origin: 326.575px 141.695px;" id="eln8zefb64p4i" class="animable"></path><path d="M335.14,94.82a2.49,2.49,0,0,0-3.27,1.33l-9.43,22.44-2.25-2.18a2.49,2.49,0,0,0-3.47,3.58l4.87,4.73a2.44,2.44,0,0,0,1.73.71,2.83,2.83,0,0,0,.5-.05,2.49,2.49,0,0,0,1.8-1.48l10.85-25.82A2.48,2.48,0,0,0,335.14,94.82Z" style="fill: rgb(250, 250, 250); transform-origin: 326.315px 110.026px;" id="el6njacfxsbbv" class="animable"></path></g><g id="freepik--speech-bubble--inject-63" class="animable" style="transform-origin: 388.695px 81.8528px;"><g id="freepik--speach-bubble--inject-63" class="animable" style="transform-origin: 388.695px 81.8528px;"><path d="M390.65,127.3l-3.86-11,3.1-9v-5.49l-9.49,5.49v5.48l4.08,10.79a.54.54,0,0,0,.28.24h0Z" style="fill: rgb(64, 123, 255); transform-origin: 385.525px 114.555px;" id="el37ththcdu3o" class="animable"></path><g id="elacgmq4pnouq"><path d="M390.65,127.3l-3.86-11,3.1-9v-5.49l-9.49,5.49v5.48l4.08,10.79a.54.54,0,0,0,.28.24h0Z" style="opacity: 0.3; transform-origin: 385.525px 114.555px;" class="animable"></path></g><path d="M413.32,43.22a6.27,6.27,0,0,0-2.84-4.93L408.16,37a6.29,6.29,0,0,0-5.7,0L366.92,57.51a6.27,6.27,0,0,0-2.85,4.93v54.21a6.29,6.29,0,0,0,2.85,4.93l2.31,1.34a6.35,6.35,0,0,0,5.7,0l11.43-6.61,4.07,10.78a.61.61,0,0,0,1.1-.11l4.31-16.15,14.64-8.47a6.3,6.3,0,0,0,2.84-4.93Z" style="fill: rgb(64, 123, 255); transform-origin: 388.695px 81.8528px;" id="elnbtddmi1uoi" class="animable"></path><g id="el5y2agh8ghs4"><path d="M364.07,116.65a6.29,6.29,0,0,0,2.85,4.93l2.31,1.34a6.38,6.38,0,0,0,5.21.23c-1.34.5-2.36-.25-2.36-1.88V67.07a5.87,5.87,0,0,1,.83-2.81l-8-4.63a5.9,5.9,0,0,0-.83,2.81Z" style="opacity: 0.2; transform-origin: 369.255px 91.6139px;" class="animable"></path></g><g id="elxoswgopleq"><path d="M413.23,42.41c-.33-1.21-1.44-1.6-2.75-.84L374.93,62.14a5.56,5.56,0,0,0-2,2.12l-8-4.62a5.71,5.71,0,0,1,2-2.12L402.46,37a6.35,6.35,0,0,1,5.7,0l2.32,1.34A6.29,6.29,0,0,1,413.23,42.41Z" style="fill: rgb(255, 255, 255); opacity: 0.3; transform-origin: 389.08px 50.2922px;" class="animable"></path></g></g><path d="M377.22,101.57l30.87-17.82c.6-.35,1.1-.1,1.1.56a2.38,2.38,0,0,1-1.1,1.83L377.22,104c-.61.35-1.1.1-1.1-.56A2.35,2.35,0,0,1,377.22,101.57Z" style="fill: rgb(250, 250, 250); transform-origin: 392.655px 93.875px;" id="elssn9pairz3" class="animable"></path><path d="M377.22,106.37l30.87-17.81c.6-.36,1.1-.11,1.1.55a2.38,2.38,0,0,1-1.1,1.83l-30.87,17.82c-.61.35-1.1.1-1.1-.56A2.37,2.37,0,0,1,377.22,106.37Z" style="fill: rgb(250, 250, 250); transform-origin: 392.655px 98.6567px;" id="el0058fueuuhkbk" class="animable"></path><path d="M377.22,111.18l30.87-17.82c.6-.35,1.1-.1,1.1.56a2.38,2.38,0,0,1-1.1,1.83l-30.87,17.82c-.61.35-1.1.1-1.1-.56A2.35,2.35,0,0,1,377.22,111.18Z" style="fill: rgb(250, 250, 250); transform-origin: 392.655px 103.465px;" id="eli2nxydytcd" class="animable"></path><path id="freepik--check--inject-63" d="M401.27,56.6A2.5,2.5,0,0,0,398,57.93l-9.44,22.45-2.24-2.19a2.5,2.5,0,0,0-3.48,3.58l4.87,4.74a2.49,2.49,0,0,0,1.74.7,2,2,0,0,0,.49,0,2.48,2.48,0,0,0,1.81-1.47l10.85-25.82A2.5,2.5,0,0,0,401.27,56.6Z" style="fill: rgb(250, 250, 250); transform-origin: 392.495px 71.815px;" class="animable"></path></g></g><defs>     <filter id="active" height="200%">         <feMorphology in="SourceAlpha" result="DILATED" operator="dilate" radius="2"></feMorphology>                <feFlood flood-color="#32DFEC" flood-opacity="1" result="PINK"></feFlood>        <feComposite in="PINK" in2="DILATED" operator="in" result="OUTLINE"></feComposite>        <feMerge>            <feMergeNode in="OUTLINE"></feMergeNode>            <feMergeNode in="SourceGraphic"></feMergeNode>        </feMerge>    </filter>    <filter id="hover" height="200%">        <feMorphology in="SourceAlpha" result="DILATED" operator="dilate" radius="2"></feMorphology>                <feFlood flood-color="#ff0000" flood-opacity="0.5" result="PINK"></feFlood>        <feComposite in="PINK" in2="DILATED" operator="in" result="OUTLINE"></feComposite>        <feMerge>            <feMergeNode in="OUTLINE"></feMergeNode>            <feMergeNode in="SourceGraphic"></feMergeNode>        </feMerge>            <feColorMatrix type="matrix" values="0   0   0   0   0                0   1   0   0   0                0   0   0   0   0                0   0   0   1   0 "></feColorMatrix>    </filter></defs></svg>